<svg xmlns="http://www.w3.org/2000/svg">
  <symbol id="icon" fill="none" viewBox="0 0 16 16"><path fill="currentColor" d="M12.5 1c.83 0 1.5.67 1.5 1.5V13a2 2 0 0 1-1.8 2H4a2 2 0 0 1-2-2v-1.5c0-.28.22-.5.5-.5h1V2.5C3.5 1.67 4.17 1 5 1h7.5ZM3 13a1 1 0 0 0 1 1h6.27a2 2 0 0 1-.27-1v-1H3v1ZM5 2a.5.5 0 0 0-.5.5V11h6c.28 0 .5.22.5.5V13a1 1 0 0 0 2 0V2.5a.5.5 0 0 0-.5-.5H5Zm1 2.92A1.5 1.5 0 0 1 8.36 3.7l2.26 1.58c.85.6.85 1.86 0 2.46L8.36 9.3A1.5 1.5 0 0 1 6 8.08V4.92Zm1.79-.4a.5.5 0 0 0-.79.4v3.16c0 .4.46.64.79.4l2.25-1.57a.5.5 0 0 0 0-.82L7.8 4.51Z"/></symbol>
  <symbol id="icon-large" fill="none" viewBox="0 0 24 24"><path fill="currentColor" d="M18.5 2c.83 0 1.5.67 1.5 1.5V19a3 3 0 0 1-2.85 3H5.5A2.5 2.5 0 0 1 3 19.5v-2c0-.28.22-.5.5-.5H5V3.5C5 2.67 5.67 2 6.5 2h12ZM4 19.5c0 .83.67 1.5 1.5 1.5h9.27a2.98 2.98 0 0 1-.77-2v-1H4v1.5ZM6.5 3a.5.5 0 0 0-.5.5V17h8.5c.28 0 .5.22.5.5V19a2 2 0 1 0 4 0V3.5a.5.5 0 0 0-.5-.5h-12Zm2 3.8a1.5 1.5 0 0 1 2.3-1.27l5.1 3.2a1.5 1.5 0 0 1 0 2.54l-5.1 3.2c-1 .62-2.3-.1-2.3-1.27V6.8Zm1.76-.42a.5.5 0 0 0-.76.42v6.4c0 .39.43.63.76.42l5.12-3.2a.5.5 0 0 0 0-.84l-5.12-3.2Z"/></symbol>
  <use href="#icon"/>
</svg>
