<svg xmlns="http://www.w3.org/2000/svg">
  <symbol id="icon" fill="none" viewBox="0 0 16 16"><path fill="currentColor" fill-rule="evenodd" d="M14.76 11.07a.5.5 0 0 1-.05.88l-6.5 3a.5.5 0 0 1-.42 0l-6.5-3a.5.5 0 0 1-.05-.88l2.5-1.5.52.86-1.7 1.01L8 13.94l5.43-2.5-1.69-1.01.52-.86 2.5 1.5ZM7.27 1.83c.45-.25 1-.25 1.46 0l2 1.11c.47.27.77.77.77 1.31v4.16c0 .55-.3 1.05-.77 1.31l-2 1.11c-.45.26-1 .26-1.46 0l-2-1.1A1.5 1.5 0 0 1 4.5 8.4V4.25c0-.54.3-1.04.77-1.3l2-1.12ZM5.5 8.41c0 .18.1.35.26.44l1.74.97V5.96l-2-1.11v3.56Zm3-2.45v3.86l1.74-.97a.5.5 0 0 0 .26-.44V4.85l-2 1.11Zm-.26-3.25a.5.5 0 0 0-.48 0l-2 1.1-.03.02L8 5.1l2.27-1.26-.03-.01-2-1.11Z" clip-rule="evenodd"/></symbol>
  <symbol id="icon-large" fill="none" viewBox="0 0 24 24"><path fill="currentColor" d="M20.75 15.57a.5.5 0 0 1 0 .86l-8.5 5a.5.5 0 0 1-.5 0l-8.5-5a.5.5 0 0 1 0-.86l2.6-1.5.25.43.25.43L4.49 16 12 20.42 19.5 16l-1.85-1.07.5-.86 2.6 1.5ZM11.27 3.19c.45-.25 1-.25 1.46 0l3.5 1.94c.47.27.77.77.77 1.31v5.83c0 .54-.3 1.04-.77 1.3l-3.5 1.95c-.45.25-1 .25-1.46 0l-3.5-1.94A1.5 1.5 0 0 1 7 12.27V6.44c0-.54.3-1.04.77-1.3l3.5-1.95ZM8 12.27c0 .18.1.35.26.43l3.24 1.8V8.66L8 6.71v5.56Zm4.5-3.62v5.86l3.24-1.8a.5.5 0 0 0 .26-.44V6.7l-3.5 1.94Zm-.26-4.59a.5.5 0 0 0-.48 0l-3.23 1.8L12 7.77l3.47-1.93-3.23-1.79Z"/></symbol>
  <use href="#icon"/>
</svg>
