<svg xmlns="http://www.w3.org/2000/svg">
  <symbol id="icon" fill="none" viewBox="0 0 16 16"><path fill="currentColor" d="M10.5 2c.83 0 1.5.67 1.5 1.5v4.09c.58.2 1 .76 1 1.41v3.5c0 .83-.67 1.5-1.5 1.5h-7A1.5 1.5 0 0 1 3 12.5v-1h-.5a.5.5 0 0 1 0-1H3v-1h-.5a.5.5 0 0 1 0-1H3v-1h-.5a.5.5 0 0 1 0-1H3v-1h-.5a.5.5 0 0 1 0-1H3v-1C3 2.67 3.67 2 4.5 2h6Zm-6 1a.5.5 0 0 0-.5.5v1h.5a.5.5 0 0 1 0 1H4v1h.5a.5.5 0 0 1 0 1H4v1h.5a.5.5 0 0 1 0 1H4v1h.5a.5.5 0 0 1 0 1H4v1c0 .28.22.5.5.5h7a.5.5 0 0 0 .5-.5V9a.5.5 0 0 0-.5-.5H10a1 1 0 0 1-1-1v-4a.5.5 0 0 0-.5-.5h-4Zm5.41 0c.06.16.09.32.09.5v4h1v-4a.5.5 0 0 0-.5-.5h-.59Z"/></symbol>
  <symbol id="icon-large" fill="none" viewBox="0 0 24 24"><path fill="currentColor" d="M16.5 2c.83 0 1.5.67 1.5 1.5v4.59c.58.2 1 .76 1 1.41v4.09c.58.2 1 .76 1 1.41v5.5c0 .83-.67 1.5-1.5 1.5h-13A1.5 1.5 0 0 1 4 20.5v-2H3a.5.5 0 0 1 0-1h1v-3H3a.5.5 0 0 1 0-1h1v-3H3a.5.5 0 0 1 0-1h1v-3H3a.5.5 0 0 1 0-1h1v-2C4 2.67 4.67 2 5.5 2h11Zm-11 1a.5.5 0 0 0-.5.5v2h1a.5.5 0 0 1 0 1H5v3h1a.5.5 0 0 1 0 1H5v3h1a.5.5 0 0 1 0 1H5v3h1a.5.5 0 0 1 0 1H5v2c0 .28.22.5.5.5h13a.5.5 0 0 0 .5-.5V15a.5.5 0 0 0-.5-.5h-3a1 1 0 0 1-1-1v-10A.5.5 0 0 0 14 3H5.5Zm10 10.5H18v-4a.5.5 0 0 0-.5-.5h-2v4.5ZM15.41 3c.06.16.09.32.09.5V8H17V3.5a.5.5 0 0 0-.5-.5h-1.09Z"/></symbol>
  <use href="#icon"/>
</svg>
