<svg xmlns="http://www.w3.org/2000/svg">
  <symbol id="icon" fill="none" viewBox="0 0 16 16"><path fill="currentColor" fill-rule="evenodd" d="M10.5 3.07c.37-.05.77.01 1.13.23.36.21.65.57.8 1.06.21.75.6 2.14.91 3.32l.41 1.54.13.48.03.13.01.03v.01A2.47 2.47 0 0 1 11.5 13a2.45 2.45 0 0 1-2.45-2h-2.1c-.22 1.05-1.1 2-2.45 2a2.47 2.47 0 0 1-2.42-3.13v-.04l.04-.13.13-.48.4-1.54c.33-1.18.7-2.57.93-3.32A1.72 1.72 0 0 1 5.5 3.07c.37.04.73.18 1 .41.28.24.5.6.5 1.02V5h2v-.5c0-.43.22-.78.5-1.02a1.9 1.9 0 0 1 1-.41ZM4.5 9C3.57 9 3 9.73 3 10.5S3.57 12 4.5 12 6 11.27 6 10.5v-.02A1.47 1.47 0 0 0 4.5 9Zm7 0c-.93 0-1.5.73-1.5 1.5s.57 1.5 1.5 1.5 1.5-.73 1.5-1.5S12.43 9 11.5 9ZM7 10h2V9H7v1Zm3.6-5.94a.9.9 0 0 0-.46.19c-.1.09-.14.18-.14.25v3.98a2.58 2.58 0 0 1 2.44-.31l-.07-.23-.9-3.3a.79.79 0 0 0-.35-.48.82.82 0 0 0-.51-.1Zm-5.21 0a.82.82 0 0 0-.5.1.79.79 0 0 0-.35.48c-.22.74-.6 2.11-.92 3.3l-.06.23A2.58 2.58 0 0 1 6 8.48V4.5c0-.07-.03-.16-.14-.25a.9.9 0 0 0-.47-.2ZM6.99 6v2h2L9 6H7Z" clip-rule="evenodd"/></symbol>
  <symbol id="icon-large" fill="none" viewBox="0 0 24 24"><path fill="currentColor" fill-rule="evenodd" d="M15.02 4.04a2.94 2.94 0 0 1 3.23 1.52l.01.03.01.02 3.12 7.52.14.35c.3.63.47 1.32.47 2.02 0 2.23-1.68 4.5-4.5 4.5a4.42 4.42 0 0 1-4.47-4h-2.06a4.42 4.42 0 0 1-4.47 4A4.44 4.44 0 0 1 2 15.5c0-.7.16-1.4.47-2.02a9 9 0 0 1 .14-.35l3.12-7.52V5.6l.02-.03a2.94 2.94 0 0 1 3.23-1.52c1.1.24 2.06 1.15 1.98 2.46V8h2.08V6.5c-.08-1.31.89-2.22 1.98-2.46ZM6.5 12A3.44 3.44 0 0 0 3 15.5C3 17.27 4.32 19 6.5 19a3.44 3.44 0 0 0 3.46-4v-.02A3.42 3.42 0 0 0 6.5 12Zm11 0a3.42 3.42 0 0 0-3.46 2.98V15a3.44 3.44 0 0 0 3.46 4c2.18 0 3.5-1.73 3.5-3.5S19.68 12 17.5 12Zm-6.54 2.92.01.08h2.06v-1h-2.07v.92Zm0-5.92v4h2.08V9h-2.08Zm-2.2-3.98c-.72-.16-1.6.09-2.12 1l-2.27 5.49A4.5 4.5 0 0 1 6.5 11c1.5 0 2.69.65 3.46 1.6V6.45c.06-.71-.45-1.28-1.2-1.44Zm8.6 1a1.94 1.94 0 0 0-2.12-1c-.75.16-1.26.73-1.2 1.44v6.13A4.37 4.37 0 0 1 17.5 11c.8 0 1.52.19 2.13.5l-2.27-5.47Z" clip-rule="evenodd"/></symbol>
  <use href="#icon"/>
</svg>
