<svg xmlns="http://www.w3.org/2000/svg">
  <symbol id="icon" fill="none" viewBox="0 0 16 16"><path fill="currentColor" d="M8.5 6c.83 0 1.5.67 1.5 1.5v5c0 .83-.67 1.5-1.5 1.5h-5A1.5 1.5 0 0 1 2 12.5v-5C2 6.67 2.67 6 3.5 6h5Zm-5 1a.5.5 0 0 0-.5.5v5c0 .28.22.5.5.5h5a.5.5 0 0 0 .5-.5v-5a.5.5 0 0 0-.5-.5h-5Zm3.65 1.15a.5.5 0 1 1 .7.7L6.71 10l1.14 1.15a.5.5 0 1 1-.7.7L6 10.71l-1.15 1.14a.5.5 0 1 1-.7-.7L5.29 10 4.15 8.85a.5.5 0 1 1 .7-.7L6 9.29l1.15-1.14ZM12.5 2c.83 0 1.5.67 1.5 1.5v5c0 .83-.67 1.5-1.5 1.5H11V9h1.5a.5.5 0 0 0 .5-.5v-5a.5.5 0 0 0-.5-.5h-5a.5.5 0 0 0-.5.5V5H6V3.5C6 2.67 6.67 2 7.5 2h5Z"/></symbol>
  <symbol id="icon-large" fill="none" viewBox="0 0 24 24"><path fill="currentColor" d="M14.5 8c.83 0 1.5.67 1.5 1.5v11c0 .83-.67 1.5-1.5 1.5h-11A1.5 1.5 0 0 1 2 20.5v-11C2 8.67 2.67 8 3.5 8h11Zm-11 1a.5.5 0 0 0-.5.5v11c0 .28.22.5.5.5h11a.5.5 0 0 0 .5-.5v-11a.5.5 0 0 0-.5-.5h-11Zm8.15 2.65a.5.5 0 1 1 .7.7L9.71 15l2.64 2.65a.5.5 0 1 1-.7.7L9 15.71l-2.65 2.64a.5.5 0 1 1-.7-.7L8.29 15l-2.64-2.65a.5.5 0 1 1 .7-.7L9 14.29l2.65-2.64ZM20.5 2c.83 0 1.5.67 1.5 1.5v11c0 .83-.67 1.5-1.5 1.5H18v-1h2.5a.5.5 0 0 0 .5-.5v-11a.5.5 0 0 0-.5-.5h-11a.5.5 0 0 0-.5.5V6H8V3.5C8 2.67 8.67 2 9.5 2h11Z"/></symbol>
  <use href="#icon"/>
</svg>
