<svg xmlns="http://www.w3.org/2000/svg">
  <symbol id="icon" fill="none" viewBox="0 0 16 16"><path fill="currentColor" d="M8.5 6c.83 0 1.5.67 1.5 1.5v5c0 .83-.67 1.5-1.5 1.5h-5A1.5 1.5 0 0 1 2 12.5v-5C2 6.67 2.67 6 3.5 6h5Zm-5 1a.5.5 0 0 0-.5.5v5c0 .28.22.5.5.5h5a.5.5 0 0 0 .5-.5v-5a.5.5 0 0 0-.5-.5h-5Zm3.6 1.19a.5.5 0 0 1 .8.62l-2 2.5a.5.5 0 0 1-.75.04l-1-1a.5.5 0 1 1 .7-.7l.6.6L7.12 8.2ZM12.5 2c.83 0 1.5.67 1.5 1.5v5c0 .83-.67 1.5-1.5 1.5H11V9h1.5a.5.5 0 0 0 .5-.5v-5a.5.5 0 0 0-.5-.5h-5a.5.5 0 0 0-.5.5V5H6V3.5C6 2.67 6.67 2 7.5 2h5Z"/></symbol>
  <symbol id="icon-large" fill="none" viewBox="0 0 24 24"><path fill="currentColor" d="M14.5 8c.83 0 1.5.67 1.5 1.5v11c0 .83-.67 1.5-1.5 1.5h-11A1.5 1.5 0 0 1 2 20.5v-11C2 8.67 2.67 8 3.5 8h11Zm-11 1a.5.5 0 0 0-.5.5v11c0 .28.22.5.5.5h11a.5.5 0 0 0 .5-.5v-11a.5.5 0 0 0-.5-.5h-11Zm8.62 2.18a.5.5 0 0 1 .76.64l-5 6a.5.5 0 0 1-.73.03l-2-2a.5.5 0 1 1 .7-.7l1.62 1.6 4.65-5.57ZM20.5 2c.83 0 1.5.67 1.5 1.5v11c0 .83-.67 1.5-1.5 1.5H18v-1h2.5a.5.5 0 0 0 .5-.5v-11a.5.5 0 0 0-.5-.5h-11a.5.5 0 0 0-.5.5V6H8V3.5C8 2.67 8.67 2 9.5 2h11Z"/></symbol>
  <use href="#icon"/>
</svg>
