<svg xmlns="http://www.w3.org/2000/svg">
  <symbol id="icon" fill="none" viewBox="0 0 16 16"><path fill="currentColor" d="M2 5.5C2 6.33 2.67 7 3.5 7h9c.83 0 1.5-.67 1.5-1.5v-2c0-.83-.67-1.5-1.5-1.5h-9C2.67 2 2 2.67 2 3.5v2Zm7.15 7.65a.5.5 0 1 0 .7.7l1.65-1.64 1.65 1.64a.5.5 0 1 0 .7-.7l-1.64-1.65 1.64-1.65a.5.5 0 1 0-.7-.7l-1.65 1.64-1.65-1.64a.5.5 0 1 0-.7.7l1.64 1.65-1.64 1.65ZM3 3.5c0-.28.22-.5.5-.5h9c.28 0 .5.22.5.5v2a.5.5 0 0 1-.5.5h-9a.5.5 0 0 1-.5-.5v-2Zm-1 9c0 .83.67 1.5 1.5 1.5H7v-1H3.5a.5.5 0 0 1-.5-.5v-2c0-.28.22-.5.5-.5H7V9H3.5C2.67 9 2 9.67 2 10.5v2Z"/></symbol>
  <symbol id="icon-large" fill="none" viewBox="0 0 24 24"><path fill="currentColor" d="M3 8.5c0 .83.67 1.5 1.5 1.5h15c.83 0 1.5-.67 1.5-1.5v-3c0-.83-.67-1.5-1.5-1.5h-15C3.67 4 3 4.67 3 5.5v3Zm11.15 11.15a.5.5 0 1 0 .7.7l2.65-2.64 2.65 2.64a.5.5 0 1 0 .7-.7L18.21 17l2.64-2.65a.5.5 0 1 0-.7-.7l-2.65 2.64-2.65-2.64a.5.5 0 1 0-.7.7L16.79 17l-2.64 2.65ZM4 5.5c0-.28.22-.5.5-.5h15c.28 0 .5.22.5.5v3a.5.5 0 0 1-.5.5h-15a.5.5 0 0 1-.5-.5v-3Zm-1 13c0 .83.67 1.5 1.5 1.5H12v-1H4.5a.5.5 0 0 1-.5-.5v-3c0-.28.22-.5.5-.5H12v-1H4.5c-.83 0-1.5.67-1.5 1.5v3Z"/></symbol>
  <use href="#icon"/>
</svg>
