<svg xmlns="http://www.w3.org/2000/svg">
  <symbol id="icon" fill="none" viewBox="0 0 16 16"><path fill="currentColor" d="M14.15 11.15a.5.5 0 0 1 .7.7L13.71 13l1.14 1.15c.2.2.2.5 0 .7a.5.5 0 0 1-.7 0L13 13.71l-1.15 1.14a.5.5 0 0 1-.7-.7L12.29 13l-1.14-1.15a.5.5 0 0 1 .7-.7L13 12.29l1.15-1.14ZM12.5 2c.83 0 1.5.67 1.5 1.5V9h-1V6H6v7h3v1H3.5A1.5 1.5 0 0 1 2 12.5v-9C2 2.67 2.67 2 3.5 2h9ZM3 12.5c0 .28.22.5.5.5H5V6H3v6.5ZM3.5 3a.5.5 0 0 0-.5.5V5h2V3H3.5ZM6 5h7V3.5a.5.5 0 0 0-.5-.5H6v2Z"/></symbol>
  <symbol id="icon-large" fill="none" viewBox="0 0 24 24"><path fill="currentColor" d="M21.14 17.15a.5.5 0 0 1 .71.7l-1.64 1.65 1.64 1.65a.5.5 0 0 1-.7.7l-1.65-1.64-1.65 1.64a.5.5 0 0 1-.7-.7l1.64-1.65-1.64-1.65a.5.5 0 0 1 .7-.7l1.65 1.64 1.64-1.64ZM19 3a2 2 0 0 1 2 2v10h-1V8H8v5.5h7v1H8V20h7v1H5a2 2 0 0 1-2-2V5c0-1.1.9-2 2-2h14ZM4 19a1 1 0 0 0 1 1h2v-5.5H4V19Zm0-5.5h3V8H4v5.5ZM5 4a1 1 0 0 0-1 1v2h3V4H5Zm3 3h12V5a1 1 0 0 0-1-1H8v3Z"/></symbol>
  <use href="#icon"/>
</svg>
