<svg xmlns="http://www.w3.org/2000/svg">
  <symbol id="icon" fill="none" viewBox="0 0 16 16"><path fill="currentColor" d="M5.5 2C6.33 2 7 2.67 7 3.5v9c0 .83-.67 1.5-1.5 1.5h-2A1.5 1.5 0 0 1 2 12.5v-9C2 2.67 2.67 2 3.5 2h2Zm7.65 7.15a.5.5 0 1 1 .7.7l-1.64 1.65 1.64 1.65a.5.5 0 1 1-.7.7l-1.65-1.64-1.65 1.64a.5.5 0 1 1-.7-.7l1.64-1.65-1.64-1.65a.5.5 0 1 1 .7-.7l1.65 1.64 1.65-1.64ZM3.5 3a.5.5 0 0 0-.5.5v9c0 .28.22.5.5.5h2a.5.5 0 0 0 .5-.5v-9a.5.5 0 0 0-.5-.5h-2Zm9-1c.83 0 1.5.67 1.5 1.5V7h-1V3.5a.5.5 0 0 0-.5-.5h-2a.5.5 0 0 0-.5.5V7H9V3.5c0-.83.67-1.5 1.5-1.5h2Z"/></symbol>
  <symbol id="icon-large" fill="none" viewBox="0 0 24 24"><path fill="currentColor" d="M8.5 3c.83 0 1.5.67 1.5 1.5v15c0 .83-.67 1.5-1.5 1.5h-3A1.5 1.5 0 0 1 4 19.5v-15C4 3.67 4.67 3 5.5 3h3Zm11.15 11.15a.5.5 0 1 1 .7.7l-2.64 2.65 2.64 2.65a.5.5 0 1 1-.7.7L17 18.21l-2.65 2.64a.5.5 0 1 1-.7-.7l2.64-2.65-2.64-2.65a.5.5 0 1 1 .7-.7L17 16.79l2.65-2.64ZM5.5 4a.5.5 0 0 0-.5.5v15c0 .28.22.5.5.5h3a.5.5 0 0 0 .5-.5v-15a.5.5 0 0 0-.5-.5h-3Zm13-1c.83 0 1.5.67 1.5 1.5V12h-1V4.5a.5.5 0 0 0-.5-.5h-3a.5.5 0 0 0-.5.5V12h-1V4.5c0-.83.67-1.5 1.5-1.5h3Z"/></symbol>
  <use href="#icon"/>
</svg>
