<svg xmlns="http://www.w3.org/2000/svg">
  <symbol id="icon" fill="none" viewBox="0 0 16 16"><path fill="currentColor" d="M2 1.5c0 .28.22.5.5.5h11a.5.5 0 0 0 0-1h-11a.5.5 0 0 0-.5.5Zm0 8c0 .28.22.5.5.5h11a.5.5 0 0 0 0-1h-11a.5.5 0 0 0-.5.5Zm1-4C3 6.33 3.67 7 4.5 7h7c.83 0 1.5-.67 1.5-1.5v-1c0-.83-.67-1.5-1.5-1.5h-7C3.67 3 3 3.67 3 4.5v1Zm1-1c0-.28.22-.5.5-.5h7c.28 0 .5.22.5.5v1a.5.5 0 0 1-.5.5h-7a.5.5 0 0 1-.5-.5v-1Zm0 9c0 .83.67 1.5 1.5 1.5h5c.83 0 1.5-.67 1.5-1.5v-1c0-.83-.67-1.5-1.5-1.5h-5c-.83 0-1.5.67-1.5 1.5v1Zm1-1c0-.28.22-.5.5-.5h5c.28 0 .5.22.5.5v1a.5.5 0 0 1-.5.5h-5a.5.5 0 0 1-.5-.5v-1Z"/></symbol>
  <symbol id="icon-large" fill="none" viewBox="0 0 24 24"><path fill="currentColor" d="M21 3.5a.5.5 0 0 1-.5.5h-17a.5.5 0 0 1 0-1h17c.28 0 .5.22.5.5Zm0 11a.5.5 0 0 1-.5.5h-17a.5.5 0 0 1 0-1h17c.28 0 .5.22.5.5Zm-1.5-6c0 .83-.67 1.5-1.5 1.5H6a1.5 1.5 0 0 1-1.5-1.5v-2C4.5 5.67 5.17 5 6 5h12c.83 0 1.5.67 1.5 1.5v2Zm-1-2A.5.5 0 0 0 18 6H6a.5.5 0 0 0-.5.5v2c0 .28.22.5.5.5h12a.5.5 0 0 0 .5-.5v-2Zm-1 13c0 .83-.67 1.5-1.5 1.5H8a1.5 1.5 0 0 1-1.5-1.5v-2c0-.83.67-1.5 1.5-1.5h8c.83 0 1.5.67 1.5 1.5v2Zm-1-2a.5.5 0 0 0-.5-.5H8a.5.5 0 0 0-.5.5v2c0 .28.22.5.5.5h8a.5.5 0 0 0 .5-.5v-2Z"/></symbol>
  <use href="#icon"/>
</svg>
