<svg xmlns="http://www.w3.org/2000/svg">
  <symbol id="icon" fill="none" viewBox="0 0 16 16"><path fill="currentColor" d="M1.5 2c.28 0 .5.22.5.5v11a.5.5 0 0 1-1 0v-11c0-.28.22-.5.5-.5Zm8 0c.28 0 .5.22.5.5v11a.5.5 0 1 1-1 0v-11c0-.28.22-.5.5-.5Zm-4 1C6.33 3 7 3.67 7 4.5v7c0 .83-.67 1.5-1.5 1.5h-1A1.5 1.5 0 0 1 3 11.5v-7C3 3.67 3.67 3 4.5 3h1Zm-1 1a.5.5 0 0 0-.5.5v7c0 .28.22.5.5.5h1a.5.5 0 0 0 .5-.5v-7a.5.5 0 0 0-.5-.5h-1Zm9 0c.83 0 1.5.67 1.5 1.5v5c0 .83-.67 1.5-1.5 1.5h-1a1.5 1.5 0 0 1-1.5-1.5v-5c0-.83.67-1.5 1.5-1.5h1Zm-1 1a.5.5 0 0 0-.5.5v5c0 .28.22.5.5.5h1a.5.5 0 0 0 .5-.5v-5a.5.5 0 0 0-.5-.5h-1Z"/></symbol>
  <symbol id="icon-large" fill="none" viewBox="0 0 24 24"><path fill="currentColor" d="M3.5 3c.28 0 .5.22.5.5v17a.5.5 0 0 1-1 0v-17c0-.28.22-.5.5-.5Zm11 0c.28 0 .5.22.5.5v17a.5.5 0 0 1-1 0v-17c0-.28.22-.5.5-.5Zm-6 1.5c.83 0 1.5.67 1.5 1.5v12c0 .83-.67 1.5-1.5 1.5h-2A1.5 1.5 0 0 1 5 18V6c0-.83.67-1.5 1.5-1.5h2Zm-2 1A.5.5 0 0 0 6 6v12c0 .28.22.5.5.5h2A.5.5 0 0 0 9 18V6a.5.5 0 0 0-.5-.5h-2Zm13 1c.83 0 1.5.67 1.5 1.5v8c0 .83-.67 1.5-1.5 1.5h-2A1.5 1.5 0 0 1 16 16V8c0-.83.67-1.5 1.5-1.5h2Zm-2 1a.5.5 0 0 0-.5.5v8c0 .28.22.5.5.5h2a.5.5 0 0 0 .5-.5V8a.5.5 0 0 0-.5-.5h-2Z"/></symbol>
  <use href="#icon"/>
</svg>
