<svg xmlns="http://www.w3.org/2000/svg">
  <symbol id="icon" fill="none" viewBox="0 0 16 16"><path fill="currentColor" d="M14.5 2a.5.5 0 0 0-.5.5v11a.5.5 0 1 0 1 0v-11a.5.5 0 0 0-.5-.5Zm-8 0a.5.5 0 0 0-.5.5v11a.5.5 0 0 0 1 0v-11a.5.5 0 0 0-.5-.5Zm4 1C9.67 3 9 3.67 9 4.5v7c0 .83.67 1.5 1.5 1.5h1c.83 0 1.5-.67 1.5-1.5v-7c0-.83-.67-1.5-1.5-1.5h-1Zm1 1c.28 0 .5.22.5.5v7a.5.5 0 0 1-.5.5h-1a.5.5 0 0 1-.5-.5v-7c0-.28.22-.5.5-.5h1Zm-9 0C1.67 4 1 4.67 1 5.5v5c0 .83.67 1.5 1.5 1.5h1c.83 0 1.5-.67 1.5-1.5v-5C5 4.67 4.33 4 3.5 4h-1Zm1 1c.28 0 .5.22.5.5v5a.5.5 0 0 1-.5.5h-1a.5.5 0 0 1-.5-.5v-5c0-.28.22-.5.5-.5h1Z"/></symbol>
  <symbol id="icon-large" fill="none" viewBox="0 0 24 24"><path fill="currentColor" d="M20.5 3a.5.5 0 0 0-.5.5v17a.5.5 0 0 0 1 0v-17a.5.5 0 0 0-.5-.5Zm-11 0a.5.5 0 0 0-.5.5v17a.5.5 0 0 0 1 0v-17a.5.5 0 0 0-.5-.5Zm6 1.5c-.83 0-1.5.67-1.5 1.5v12c0 .83.67 1.5 1.5 1.5h2c.83 0 1.5-.67 1.5-1.5V6c0-.83-.67-1.5-1.5-1.5h-2Zm2 1c.28 0 .5.22.5.5v12a.5.5 0 0 1-.5.5h-2a.5.5 0 0 1-.5-.5V6c0-.28.22-.5.5-.5h2Zm-13 1C3.67 6.5 3 7.17 3 8v8c0 .83.67 1.5 1.5 1.5h2c.83 0 1.5-.67 1.5-1.5V8c0-.83-.67-1.5-1.5-1.5h-2Zm2 1c.28 0 .5.22.5.5v8a.5.5 0 0 1-.5.5h-2A.5.5 0 0 1 4 16V8c0-.28.22-.5.5-.5h2Z"/></symbol>
  <use href="#icon"/>
</svg>
