<svg xmlns="http://www.w3.org/2000/svg">
  <symbol id="icon" fill="none" viewBox="0 0 16 16"><path fill="currentColor" fill-rule="evenodd" d="M6 9H3.9a.5.5 0 0 0-.5.45l-.3 3c-.02.3.2.55.5.55h8.8a.5.5 0 0 0 .5-.55l-.3-3a.5.5 0 0 0-.5-.45H11V8h1.1c.77 0 1.41.58 1.49 1.35l.3 3a1.5 1.5 0 0 1-1.5 1.65H3.61a1.5 1.5 0 0 1-1.5-1.65l.3-3A1.5 1.5 0 0 1 3.91 8H6v1Zm2 1.5c.28 0 .5.22.5.5v1a.5.5 0 1 1-1 0v-1c0-.28.22-.5.5-.5Zm-2.44-1a.5.5 0 0 1 .44.56l-.25 2a.5.5 0 0 1-1-.12l.25-2a.5.5 0 0 1 .56-.44Zm4.88 0a.5.5 0 0 1 .56.44l.25 2a.5.5 0 0 1-1 .12l-.25-2a.5.5 0 0 1 .44-.56ZM8.5 3.91a.5.5 0 0 1 .42.23l1.47 2.29c.24.37.37.8.37 1.25v.06a2.26 2.26 0 0 1-4.52 0v-.06c0-.44.12-.88.37-1.25l1.47-2.29a.5.5 0 0 1 .42-.23ZM7.45 6.97c-.14.21-.21.46-.21.71v.06a1.26 1.26 0 0 0 2.52 0v-.06c0-.25-.07-.5-.2-.71L8.5 5.34 7.45 6.97ZM5.5 1c.16 0 .3.07.4.2l1.22 1.62a1.93 1.93 0 0 1-.94 2.98l-.05.02a2 2 0 0 1-1.26 0L4.8 5.8a1.92 1.92 0 0 1-.93-2.98L5.1 1.2l.08-.09A.5.5 0 0 1 5.5 1Zm-.82 2.42a.93.93 0 0 0 .45 1.43l.05.02a1 1 0 0 0 .64 0l.05-.02a.92.92 0 0 0 .45-1.43L5.5 2.33l-.82 1.09Z" clip-rule="evenodd"/></symbol>
  <symbol id="icon-large" fill="none" viewBox="0 0 24 24"><path fill="currentColor" fill-rule="evenodd" d="M9 13H5.38a.5.5 0 0 0-.5.44l-.74 6c-.04.3.2.56.5.56h14.73a.5.5 0 0 0 .5-.56l-.76-6a.5.5 0 0 0-.5-.44H15v-1h3.62c.75 0 1.4.56 1.49 1.31l.75 6a1.5 1.5 0 0 1-1.5 1.69H4.64c-.9 0-1.6-.8-1.49-1.69l.75-6A1.5 1.5 0 0 1 5.4 12H9v1Zm3 2c.28 0 .5.22.5.5v3a.5.5 0 1 1-1 0v-3c0-.28.22-.5.5-.5Zm-4.94-1a.5.5 0 0 1 .44.56l-.5 4a.5.5 0 0 1-1-.12l.5-4a.5.5 0 0 1 .56-.44Zm2.47 0a.5.5 0 0 1 .47.53l-.25 4a.5.5 0 0 1-1-.06l.25-4a.5.5 0 0 1 .53-.47Zm4.94 0a.5.5 0 0 1 .53.47l.25 4a.5.5 0 0 1-1 .06l-.25-4a.5.5 0 0 1 .47-.53Zm2.47 0a.5.5 0 0 1 .56.44l.5 4a.5.5 0 0 1-1 .12l-.5-4a.5.5 0 0 1 .44-.56ZM12 8.5c.16 0 .3.07.4.2l1.5 2a2.38 2.38 0 1 1-3.8 0l1.5-2 .08-.09A.5.5 0 0 1 12 8.5Zm-1.1 2.8a1.38 1.38 0 1 0 2.2 0L12 9.83l-1.1 1.47ZM9 3.5c.16 0 .3.07.4.2l1.5 2a2.38 2.38 0 1 1-3.8 0l1.5-2 .08-.08A.5.5 0 0 1 9 3.5ZM7.9 6.3a1.38 1.38 0 1 0 2.2 0L9 4.84 7.9 6.31ZM14.38 2c.16 0 .3.07.4.2l1.5 2a2.38 2.38 0 1 1-3.8 0l1.5-2 .08-.09a.5.5 0 0 1 .32-.12Zm-1.1 2.8a1.38 1.38 0 1 0 2.2 0l-1.1-1.47-1.1 1.47Z" clip-rule="evenodd"/></symbol>
  <use href="#icon"/>
</svg>
