<svg xmlns="http://www.w3.org/2000/svg">
  <symbol id="icon" fill="none" viewBox="0 0 16 16"><path fill="currentColor" d="M5.5 11a4 4 0 0 1 3.63 2.32c.1.2.03.44-.15.57-.28.2-.66.03-.82-.27a3 3 0 0 0-5.32 0c-.16.3-.54.47-.82.27a.46.46 0 0 1-.15-.57A4 4 0 0 1 5.5 11Zm0-6a2.5 2.5 0 1 1 0 5 2.5 2.5 0 0 1 0-5Zm0 1a1.5 1.5 0 1 0 0 3 1.5 1.5 0 0 0 0-3ZM13 2a1 1 0 0 1 1 1v2a1 1 0 0 1-1 1h-.8l-1.35 1.35A.5.5 0 0 1 10 7V6h-.5a1 1 0 0 1-1-1V3a1 1 0 0 1 1-1H13ZM9.5 5h1c.28 0 .5.22.5.5v.3l.65-.65.07-.07A.5.5 0 0 1 12 5h1V3H9.5v2Z"/></symbol>
  <symbol id="icon-large" fill="none" viewBox="0 0 24 24"><path fill="currentColor" d="M8.5 16a5.8 5.8 0 0 1 3.66 1.3 5.06 5.06 0 0 1 1.76 2.59c.16.66-.4 1.11-.92 1.11H4c-.51 0-1.08-.45-.92-1.11l.04-.17c.25-.83.86-1.72 1.72-2.42A5.8 5.8 0 0 1 8.5 16Zm0 1a4.8 4.8 0 0 0-3.03 1.08c-.73.6-1.2 1.32-1.38 1.92h8.82a4.19 4.19 0 0 0-1.38-1.92A4.8 4.8 0 0 0 8.5 17Zm0-9a3.5 3.5 0 1 1 0 7 3.5 3.5 0 0 1 0-7Zm0 1a2.5 2.5 0 1 0 0 5 2.5 2.5 0 0 0 0-5Zm11-6c.83 0 1.5.67 1.5 1.5v3c0 .83-.67 1.5-1.5 1.5h-1.32l-2.37 1.9a.5.5 0 0 1-.81-.4V9h-.5A1.5 1.5 0 0 1 13 7.5v-3c0-.83.67-1.5 1.5-1.5h5Zm-5 1a.5.5 0 0 0-.5.5v3c0 .28.22.5.5.5h1c.28 0 .5.22.5.5v.96l1.69-1.35A.5.5 0 0 1 18 8h1.5a.5.5 0 0 0 .5-.5v-3a.5.5 0 0 0-.5-.5h-5Z"/></symbol>
  <use href="#icon"/>
</svg>
