<svg xmlns="http://www.w3.org/2000/svg">
  <symbol id="icon" fill="none" viewBox="0 0 16 16"><path fill="currentColor" d="M13.65 10.65a.5.5 0 1 1 .7.7l-1.14 1.15 1.14 1.15a.5.5 0 1 1-.7.7l-1.15-1.14-1.15 1.14a.5.5 0 1 1-.7-.7l1.14-1.15-1.14-1.15a.5.5 0 1 1 .7-.7l1.15 1.14 1.15-1.14ZM5.76 2c.24 0 .47.05.67.16l1.58.79a.5.5 0 0 0 .23.05h4.26c.83 0 1.5.67 1.5 1.5V9h-1V6.5a.5.5 0 0 0-.5-.5h-9a.5.5 0 0 0-.5.5v6c0 .28.22.5.5.5H9v1H3.5A1.5 1.5 0 0 1 2 12.5v-9C2 2.67 2.67 2 3.5 2h2.26ZM3.5 3a.5.5 0 0 0-.5.5v1.59c.16-.06.32-.09.5-.09h9c.18 0 .34.03.5.09V4.5a.5.5 0 0 0-.5-.5H8.24a1.5 1.5 0 0 1-.67-.16l-1.58-.79A.5.5 0 0 0 5.76 3H3.5Z"/></symbol>
  <symbol id="icon-large" fill="none" viewBox="0 0 24 24"><path fill="currentColor" d="M21.15 17.15a.5.5 0 1 1 .7.7l-1.64 1.65 1.64 1.65a.5.5 0 1 1-.7.7l-1.65-1.64-1.65 1.64a.5.5 0 1 1-.7-.7l1.64-1.65-1.64-1.65a.5.5 0 1 1 .7-.7l1.65 1.64 1.65-1.64ZM9.59 3c.4 0 .78.16 1.06.44l1.41 1.41c.1.1.22.15.35.15h8.09c.83 0 1.5.67 1.5 1.5V15h-1V9.5a.5.5 0 0 0-.5-.5h-17a.5.5 0 0 0-.5.5v10c0 .28.22.5.5.5H15v1H3.5A1.5 1.5 0 0 1 2 19.5v-15C2 3.67 2.67 3 3.5 3h6.09ZM3.5 4a.5.5 0 0 0-.5.5v3.59c.16-.06.32-.09.5-.09h17c.18 0 .34.03.5.09V6.5a.5.5 0 0 0-.5-.5h-8.09c-.4 0-.78-.16-1.06-.44L9.94 4.15A.5.5 0 0 0 9.59 4H3.5Z"/></symbol>
  <use href="#icon"/>
</svg>
