<svg xmlns="http://www.w3.org/2000/svg">
  <symbol id="icon" fill="none" viewBox="0 0 16 16"><path fill="currentColor" d="M5.76 2c.24 0 .47.05.67.16l1.58.79a.5.5 0 0 0 .23.05h4.26c.83 0 1.5.67 1.5 1.5v8c0 .83-.67 1.5-1.5 1.5h-9A1.5 1.5 0 0 1 2 12.5v-9C2 2.67 2.67 2 3.5 2h2.26ZM3.5 6a.5.5 0 0 0-.5.5v6c0 .28.22.5.5.5h9a.5.5 0 0 0 .5-.5v-6a.5.5 0 0 0-.5-.5h-9Zm8 1a.5.5 0 0 1 .24.06.5.5 0 0 1 .11.09.5.5 0 0 1 .09.1.5.5 0 0 1 .06.25V10a.5.5 0 0 1-1 0V8.7l-2.15 2.15a.5.5 0 1 1-.7-.7L10.29 8H9a.5.5 0 0 1 0-1h2.5Zm-8-4a.5.5 0 0 0-.5.5v1.59c.16-.06.32-.09.5-.09h9c.18 0 .34.03.5.09V4.5a.5.5 0 0 0-.5-.5H8.24a1.5 1.5 0 0 1-.67-.16l-1.58-.79A.5.5 0 0 0 5.76 3H3.5Z"/></symbol>
  <symbol id="icon-large" fill="none" viewBox="0 0 24 24"><path fill="currentColor" d="M22 19.5c0 .83-.67 1.5-1.5 1.5h-17A1.5 1.5 0 0 1 2 19.5v-15C2 3.67 2.67 3 3.5 3h6.09c.4 0 .77.16 1.06.44l1.41 1.41c.1.1.22.15.35.15h8.09c.83 0 1.5.67 1.5 1.5v13Zm-1-13a.5.5 0 0 0-.5-.5h-8.09c-.4 0-.78-.16-1.06-.44L9.94 4.15A.5.5 0 0 0 9.59 4H3.5a.5.5 0 0 0-.5.5v3.59c.16-.06.32-.09.5-.09h17c.18 0 .34.03.5.09V6.5Zm0 3a.5.5 0 0 0-.5-.5h-17a.5.5 0 0 0-.5.5v10c0 .28.22.5.5.5h17a.5.5 0 0 0 .5-.5v-10Zm-1 4a.5.5 0 0 1-1 0v-1.8l-2.65 2.65a.5.5 0 0 1-.7-.7L18.29 11H16.5a.5.5 0 1 1 0-1h3a.5.5 0 0 1 .48.37l.01.03.01.1v3Z"/></symbol>
  <use href="#icon"/>
</svg>
