<svg xmlns="http://www.w3.org/2000/svg">
  <symbol id="icon" fill="none" viewBox="0 0 16 16"><path fill="currentColor" d="M15 15H1V8h14v7ZM2 14h12V9h-2v2a.5.5 0 0 1-1 0V9H8.5v3a.5.5 0 0 1-1 0V9H5.04v2a.5.5 0 0 1-1 0V9H2v5Zm1-7h-.76V2.76H2.2L1 3.54v-.72L2.26 2H3v5Zm3.96-5c.39 0 .72.06 1.01.19.3.12.52.28.69.5a1.17 1.17 0 0 1 .11 1.25c-.08.17-.22.37-.43.58-.2.22-.5.47-.87.78l-1.2 1.03v.03H9V7H5v-.54l2.06-1.73c.22-.19.4-.35.54-.5.15-.14.25-.27.32-.4a.73.73 0 0 0 .11-.4.7.7 0 0 0-.14-.43.9.9 0 0 0-.39-.28 1.61 1.61 0 0 0-1.12 0 .85.85 0 0 0-.38.32.82.82 0 0 0-.13.46H5c0-.3.09-.56.25-.79.17-.22.4-.4.7-.52.3-.13.64-.19 1.01-.19Zm5.06 0c.36 0 .68.06.94.18.27.12.47.28.61.49.15.2.22.42.22.66 0 .27-.09.5-.27.69-.17.19-.4.32-.7.38v.04c.37.05.66.18.87.39.2.2.31.46.31.77 0 .27-.08.5-.26.72-.17.21-.41.38-.71.5S12.39 7 12 7c-.38 0-.72-.06-1.02-.17-.3-.11-.53-.27-.7-.47-.17-.2-.27-.43-.28-.7h.87a.6.6 0 0 0 .17.38c.1.1.23.19.4.24a1.84 1.84 0 0 0 1.15-.01 1 1 0 0 0 .4-.28.68.68 0 0 0 0-.85.94.94 0 0 0-.42-.29 1.9 1.9 0 0 0-.67-.1h-.48v-.6h.48c.2 0 .4-.04.55-.1a.89.89 0 0 0 .38-.27.65.65 0 0 0 .13-.42.66.66 0 0 0-.12-.39.77.77 0 0 0-.33-.26c-.14-.07-.3-.1-.5-.1-.18 0-.36.03-.52.1a.96.96 0 0 0-.38.24c-.1.1-.16.23-.16.38h-.83c0-.26.1-.5.27-.7.17-.2.4-.35.69-.46.28-.11.6-.17.94-.17Z"/></symbol>
  <symbol id="icon-large" fill="none" viewBox="0 0 24 24"><path fill="currentColor" fill-rule="evenodd" d="M20.5 12c.83 0 1.5.67 1.5 1.5v7c0 .83-.67 1.5-1.5 1.5h-17A1.5 1.5 0 0 1 2 20.5v-7c0-.83.67-1.5 1.5-1.5h17Zm-17 1a.5.5 0 0 0-.5.5v7c0 .28.22.5.5.5h17a.5.5 0 0 0 .5-.5v-7a.5.5 0 0 0-.5-.5H19v4a.5.5 0 0 1-1 0v-4h-2v2a.5.5 0 0 1-1 0v-2h-2.5v4a.5.5 0 0 1-1 0v-4H9v2a.5.5 0 0 1-1 0v-2H6v4a.5.5 0 0 1-1 0v-4H3.5Zm2.58-3.02H4.94V4.04h-.05l-1.8 1.1V4.12l1.88-1.14h1.11v7Zm5.38-7c.47 0 .9.09 1.25.26a2 2 0 0 1 .86.7c.2.3.3.63.3 1 0 .26-.05.5-.15.75-.1.25-.29.52-.55.82-.26.3-.62.67-1.08 1.1l-1.5 1.43v.05H14v.9H9v-.76l2.57-2.42c.28-.27.5-.5.68-.7.18-.2.32-.38.4-.56.1-.18.14-.38.14-.58a1 1 0 0 0-.18-.6 1.21 1.21 0 0 0-.48-.38c-.2-.1-.44-.14-.7-.14-.27 0-.5.05-.7.15-.21.1-.37.25-.47.43-.11.19-.17.4-.17.65H9c0-.42.1-.79.32-1.1.21-.32.5-.56.87-.73.37-.18.8-.27 1.27-.27Zm7.07 0c.45 0 .84.09 1.17.26.33.17.59.4.77.67.18.29.27.6.27.93 0 .38-.11.7-.33.97-.23.27-.52.45-.89.54v.05c.47.07.84.25 1.1.54.25.29.38.65.38 1.08 0 .37-.1.71-.33 1-.21.3-.5.54-.88.71-.38.17-.8.25-1.3.25-.47 0-.89-.08-1.26-.23a2.15 2.15 0 0 1-.88-.66 1.7 1.7 0 0 1-.35-.98h1.09c0 .2.08.38.2.53.13.14.3.26.51.34.2.08.44.12.7.12.27 0 .52-.05.73-.14.22-.1.39-.22.5-.4a.97.97 0 0 0 .2-.57.96.96 0 0 0-.2-.6 1.1 1.1 0 0 0-.52-.42 2.1 2.1 0 0 0-.84-.15h-.6v-.84h.6c.27 0 .5-.04.7-.13.2-.1.35-.22.47-.38a1 1 0 0 0 .16-.58 1 1 0 0 0-.56-.92 1.69 1.69 0 0 0-1.27-.01c-.2.08-.36.2-.49.35a.87.87 0 0 0-.2.54h-1.03c.01-.37.12-.7.34-.97.21-.28.5-.5.85-.66.36-.16.75-.24 1.19-.24Z" clip-rule="evenodd"/></symbol>
  <use href="#icon"/>
</svg>
