<svg xmlns="http://www.w3.org/2000/svg">
  <symbol id="icon" fill="none" viewBox="0 0 16 16"><path fill="currentColor" d="M8 1.5c.46 0 .92.05 1.36.14l-.88.88A5.53 5.53 0 0 0 3.5 4.84V6.2l.01.06.56 1.3c.05.11.19.14.27.06l.78-.78c.22-.22.51-.34.82-.34h.56l.31.94a1.1 1.1 0 0 1-.37.06h-.5a.17.17 0 0 0-.11.05l-.48.48.9.54.08.05a.5.5 0 0 1 .14.22l.2.58 1.23-.24.2-.01h1.3c.3 0 .6.12.82.34l2 2a5.48 5.48 0 0 0 1.26-3.99l.88-.88A6.5 6.5 0 1 1 2.5 4.54V4.5h.02A6.5 6.5 0 0 1 8 1.5Zm.1 8.67a.17.17 0 0 0-.15.1l-.67 1.56a.17.17 0 0 0 .03.17l.93 1.17c.08.1.14.2.18.31a5.47 5.47 0 0 0 3.1-1.25L9.5 10.22a.17.17 0 0 0-.12-.05H8.11Zm-5.46-3.4a5.5 5.5 0 0 0 4.54 6.67l-.65-.81c-.27-.34-.33-.8-.16-1.2l.43-1.01-.37.07a.5.5 0 0 1-.57-.33l-.28-.83-1.14-.68a1.18 1.18 0 0 1-1.29-.69l-.5-1.2Zm6.64-2.92a.5.5 0 0 1 .7.7l-.63.64a1.03 1.03 0 0 0 1.45 1.46l.63-.64a.5.5 0 0 1 .71.7l-.63.64A2.03 2.03 0 0 1 8.64 4.5l.64-.64Zm2.96-.81a.5.5 0 0 1 .71.7L10.8 5.92a.5.5 0 0 1-.7-.71l2.15-2.16Zm-.72-1.44a2.03 2.03 0 0 1 2.88 2.86l-.64.63a.5.5 0 0 1-.7-.7l.63-.64a1.03 1.03 0 0 0-1.46-1.44l-.63.62a.5.5 0 0 1-.7-.7l.62-.63Z"/></symbol>
  <symbol id="icon-large" fill="none" viewBox="0 0 24 24"><path fill="currentColor" d="M12 2c.62 0 1.24.06 1.83.17L13 3l-.02.05a8.98 8.98 0 0 0-8.04 3.37l-.4 2.37c-.01.1 0 .2.04.28l.8 1.88c.14.32.56.4.81.15l1.16-1.16a1.5 1.5 0 0 1 1.06-.44h.75a.5.5 0 0 0 .3-.1l1.6-1.24.33 1-1.31 1.02c-.27.2-.59.32-.92.32H8.4a.5.5 0 0 0-.35.15l-.25.25 1.95 1.17.07.05a.5.5 0 0 1 .14.22l.39 1.16h3.23c.4 0 .78.16 1.06.44L18.7 18a8.96 8.96 0 0 0 2.1-7.82l.83-.82a10 10 0 0 1-9.14 12.63V22h-1v-.01A10 10 0 0 1 4 6v-.1l.06.02A9.98 9.98 0 0 1 12 2ZM3.54 8.93A8.99 8.99 0 0 0 11.5 21v-.64a.5.5 0 0 0-.1-.31l-1.42-1.76a1.5 1.5 0 0 1-.2-1.53l.96-2.25H10a.5.5 0 0 1-.47-.34l-.45-1.33-2-1.2-.18.18a1.5 1.5 0 0 1-2.44-.47l-.8-1.87a1.5 1.5 0 0 1-.12-.54Zm8.62 5.57a.5.5 0 0 0-.46.3l-1 2.35a.5.5 0 0 0 .06.5l1.41 1.76c.21.27.33.6.33.94v.64A8.96 8.96 0 0 0 18 18.7l-4.06-4.06a.5.5 0 0 0-.35-.15h-1.43Zm2.49-9.35a.5.5 0 1 1 .7.7l-.51.52a2 2 0 1 0 2.81 2.83l.36-.36a.5.5 0 0 1 .7.7l-.35.36a3 3 0 1 1-4.23-4.24l.52-.51Zm4.41-.92a.5.5 0 0 1 .7.7l-2.82 2.84a.5.5 0 0 1-.71-.71l2.83-2.83Zm-1.4-2.1a3 3 0 0 1 4.24 4.23l-.35.36a.5.5 0 0 1-.71-.71l.35-.35a2 2 0 0 0-2.83-2.83l-.35.35a.5.5 0 0 1-.7-.7l.35-.36Z"/></symbol>
  <use href="#icon"/>
</svg>
