<svg xmlns="http://www.w3.org/2000/svg">
  <symbol id="icon" fill="none" viewBox="0 0 16 16"><path fill="currentColor" d="M6 2.88a5.52 5.52 0 0 0-2.5 1.96V6.2l.01.06.56 1.3c.05.11.19.14.27.06l.78-.78c.22-.22.51-.34.82-.34h.5c.04 0 .08-.01.1-.03l.87-.65.45.9-.72.55c-.2.15-.44.23-.7.23h-.5a.17.17 0 0 0-.11.05l-.48.48.9.54.08.05a.5.5 0 0 1 .14.22l.2.58 1.23-.24.2-.01h1.3c.3 0 .6.12.82.34l2 2A5.48 5.48 0 0 0 13.41 7h1.01A6.5 6.5 0 1 1 2.5 4.54V4.5h.02A6.52 6.52 0 0 1 6 1.82v1.05Zm2.1 7.29a.17.17 0 0 0-.15.1l-.67 1.56a.17.17 0 0 0 .03.17l.93 1.17c.08.1.14.2.18.31a5.47 5.47 0 0 0 3.1-1.25L9.5 10.22a.17.17 0 0 0-.12-.05H8.11Zm-5.46-3.4a5.5 5.5 0 0 0 4.54 6.67l-.65-.81c-.27-.34-.33-.8-.16-1.2l.43-1.01-.37.07a.5.5 0 0 1-.57-.33l-.28-.83-1.14-.68a1.18 1.18 0 0 1-1.29-.69l-.5-1.2ZM9 1a1.5 1.5 0 0 1 1.03 2.59l.85 1.91a1.52 1.52 0 0 1 .64.1l.7-.84a1.5 1.5 0 1 1 .77.64h-.01l-.7.83a1.5 1.5 0 1 1-2.32-.32L9.13 4H9a1.5 1.5 0 1 1 0-3Zm2 5.5a.5.5 0 1 0 0 1 .5.5 0 0 0 0-1Zm2.5-3a.5.5 0 1 0 0 1 .5.5 0 0 0 0-1ZM9 2a.5.5 0 1 0 0 1 .5.5 0 0 0 0-1Z"/></symbol>
  <symbol id="icon-large" fill="none" viewBox="0 0 24 24"><path fill="currentColor" d="M10 3.22a9 9 0 0 0-5.06 3.2l-.4 2.37c-.01.1 0 .2.04.28l.8 1.88c.14.32.56.4.81.15l1.16-1.16a1.5 1.5 0 0 1 1.06-.44h.75a.5.5 0 0 0 .3-.1l2.58-2 .51.86-2.47 1.92c-.27.2-.59.32-.92.32H8.4a.5.5 0 0 0-.35.15l-.25.25 1.95 1.17.07.05a.5.5 0 0 1 .14.22l.39 1.16h3.23c.4 0 .78.16 1.06.44L18.7 18a8.96 8.96 0 0 0 1.78-9h1.05a10 10 0 0 1-9.04 12.99V22h-1v-.01A10 10 0 0 1 4 6v-.1l.06.02A10 10 0 0 1 10 2.2v1.02ZM3.54 8.93a9 9 0 0 0 7.96 12.05v-.63a.5.5 0 0 0-.1-.31l-1.42-1.76a1.5 1.5 0 0 1-.2-1.53l.96-2.25H10a.5.5 0 0 1-.47-.34l-.45-1.33-2-1.2-.18.18a1.5 1.5 0 0 1-2.44-.47l-.8-1.87a1.5 1.5 0 0 1-.12-.54Zm8.62 5.57a.5.5 0 0 0-.46.3l-1 2.35a.5.5 0 0 0 .06.5l1.41 1.76c.21.27.33.6.33.94V21a8.96 8.96 0 0 0 5.5-2.3l-4.06-4.06a.5.5 0 0 0-.35-.15h-1.43ZM14 1a2 2 0 0 1 1.22 3.58l1.48 3.44-.04.01a2.01 2.01 0 0 1 1.16.15L19.4 6.2a2 2 0 1 1 .78.63L18.6 8.8a2 2 0 1 1-2.82-.38L14.3 4.97A2 2 0 1 1 14 1Zm3 8a1 1 0 1 0 0 2 1 1 0 0 0 0-2Zm4-5a1 1 0 1 0 0 2 1 1 0 0 0 0-2Zm-7-2a1 1 0 1 0 0 2 1 1 0 0 0 0-2Z"/></symbol>
  <use href="#icon"/>
</svg>
