<svg xmlns="http://www.w3.org/2000/svg">
  <symbol id="icon" fill="none" viewBox="0 0 16 16"><path fill="currentColor" d="M3.5 2A1.5 1.5 0 0 1 4 4.91V5a2.5 2.5 0 0 0 2.5 2.5h2A3.5 3.5 0 0 1 12 11v1.3l1.15-1.15a.5.5 0 0 1 .7.7l-2.35 2.36-2.35-2.36a.5.5 0 0 1 .7-.7L11 12.29V11a2.5 2.5 0 0 0-2.5-2.5h-2c-.98 0-1.86-.4-2.5-1.05v3.64a1.5 1.5 0 1 1-1 0V4.9A1.5 1.5 0 0 1 3.5 2Zm0 10a.5.5 0 1 0 0 1 .5.5 0 0 0 0-1Zm0-9a.5.5 0 1 0 0 1 .5.5 0 0 0 0-1Z"/></symbol>
  <symbol id="icon-large" fill="none" viewBox="0 0 24 24"><path fill="currentColor" d="M5 3a2 2 0 0 1 .5 3.93V7a4.5 4.5 0 0 0 4.5 4.5h2.5A5.5 5.5 0 0 1 18 17v2.3l2.15-2.15a.5.5 0 0 1 .7.7l-3.35 3.36-3.35-3.36a.5.5 0 0 1 .7-.7L17 19.29V17a4.5 4.5 0 0 0-4.5-4.5H10a5.5 5.5 0 0 1-4.5-2.34v6.9a2 2 0 1 1-1 0V6.94A2 2 0 0 1 5 3Zm0 15a1 1 0 1 0 0 2 1 1 0 0 0 0-2ZM5 4a1 1 0 1 0 0 2 1 1 0 0 0 0-2Z"/></symbol>
  <use href="#icon"/>
</svg>
