<svg xmlns="http://www.w3.org/2000/svg">
  <symbol id="icon" fill="none" viewBox="0 0 16 16"><path fill="currentColor" d="M2.15 11.65a.5.5 0 0 1 .7-.71L4 12.09V4.7a1.5 1.5 0 1 1 1 0v3.64a3.5 3.5 0 0 1 2.5-1.06h2A2.5 2.5 0 0 0 12 4.8v-.08a1.5 1.5 0 1 1 1 0v.08a3.5 3.5 0 0 1-3.5 3.5h-2A2.5 2.5 0 0 0 5 10.8v1.3l1.15-1.15a.5.5 0 0 1 .7.7L4.5 14l-2.35-2.35ZM12.5 3.79a.5.5 0 1 0 0-1 .5.5 0 0 0 0 1Zm-8 0a.5.5 0 1 0 0-1 .5.5 0 0 0 0 1Z"/></symbol>
  <symbol id="icon-large" fill="none" viewBox="0 0 24 24"><path fill="currentColor" d="M6.5 3A2 2 0 0 0 6 6.93V19.3l-2.15-2.14a.5.5 0 0 0-.7.7l3.35 3.36 3.35-3.36a.5.5 0 0 0-.7-.7L7 19.29v-2.52a4.5 4.5 0 0 1 4.5-4.27H14A5.5 5.5 0 0 0 19.5 7v-.07a2 2 0 1 0-1 0V7a4.5 4.5 0 0 1-4.5 4.5h-2.5A5.5 5.5 0 0 0 7 13.84v-6.9A2 2 0 0 0 6.5 3ZM19 4a1 1 0 1 1 0 2 1 1 0 0 1 0-2ZM6.5 4a1 1 0 1 1 0 2 1 1 0 0 1 0-2Z"/></symbol>
  <use href="#icon"/>
</svg>
