<svg xmlns="http://www.w3.org/2000/svg">
  <symbol id="icon" fill="none" viewBox="0 0 16 16"><path fill="currentColor" d="M2.5 2c.28 0 .5.22.5.5v10.33c0 .1.07.17.17.17H13.5a.5.5 0 0 1 0 1H3.17C2.52 14 2 13.48 2 12.83V2.5c0-.28.22-.5.5-.5Zm2.75 8.5a.75.75 0 1 1 0 1.5.75.75 0 0 1 0-1.5Zm3-1a.75.75 0 1 1 0 1.5.75.75 0 0 1 0-1.5Zm3-1.5a.75.75 0 1 1 0 1.5.75.75 0 0 1 0-1.5Zm-4.5-1.5a.75.75 0 1 1 0 1.5.75.75 0 0 1 0-1.5Zm2.5-.5a.75.75 0 1 1 0 1.5.75.75 0 0 1 0-1.5Zm3.5-1.5a.75.75 0 1 1 0 1.5.75.75 0 0 1 0-1.5Zm-2.5-1a.75.75 0 1 1 0 1.5.75.75 0 0 1 0-1.5Z"/></symbol>
  <symbol id="icon-large" fill="none" viewBox="0 0 24 24"><path fill="currentColor" d="M3.5 3c.28 0 .5.22.5.5v16c0 .28.22.5.5.5h16a.5.5 0 0 1 0 1h-16A1.5 1.5 0 0 1 3 19.5v-16c0-.28.22-.5.5-.5ZM8 15a1 1 0 1 1 0 2 1 1 0 0 1 0-2Zm4-1a1 1 0 1 1 0 2 1 1 0 0 1 0-2Zm5-2a1 1 0 1 1 0 2 1 1 0 0 1 0-2Zm-7-2a1 1 0 1 1 0 2 1 1 0 0 1 0-2Zm4-1a1 1 0 1 1 0 2 1 1 0 0 1 0-2Zm5-2a1 1 0 1 1 0 2 1 1 0 0 1 0-2Zm-4-2a1 1 0 1 1 0 2 1 1 0 0 1 0-2Z"/></symbol>
  <use href="#icon"/>
</svg>
