<svg xmlns="http://www.w3.org/2000/svg">
  <symbol id="icon" fill="none" viewBox="0 0 16 16"><path fill="currentColor" d="M9.67 2.5a.5.5 0 0 1 .5.47v.1c-.01 0 0 0 0 0l-.01.02v.03l-.03.14-.07.5-.02.11c.44.09.86.32 1.24.61.49.39.95.92 1.35 1.54a8.66 8.66 0 0 1 1.36 4.23c.19.1.35.24.48.4.32.4.43.9.4 1.38-.05.9-.67 1.97-1.87 1.97H3c-1.2 0-1.82-1.07-1.87-1.97-.03-.47.08-.98.4-1.37.13-.17.29-.3.47-.41a8.31 8.31 0 0 1 1.42-4.24 4.82 4.82 0 0 1 2.67-2.1l-.01-.12-.06-.54-.01-.14v-.16a.5.5 0 0 1 .49-.45h3.17Zm-2.6 1.18A708.61 708.61 0 0 1 7.5 8h-1v-.08a11.62 11.62 0 0 0-.08-.8l-.17-1.7-.05-.51a4 4 0 0 0-1.95 1.66A7.33 7.33 0 0 0 3 10.24V11c-.36 0-.57.13-.69.28-.13.17-.2.41-.19.7.04.6.41 1.02.88 1.02h10c.47 0 .84-.43.88-1.03.01-.28-.06-.52-.2-.69-.11-.15-.32-.28-.68-.28v-.5c0-1.39-.5-2.84-1.21-3.94a5.3 5.3 0 0 0-1.13-1.3 2.06 2.06 0 0 0-.77-.4l-.06.46A102.25 102.25 0 0 0 9.5 8h-1c0-.2.05-.64.1-1.13a103.02 103.02 0 0 1 .47-3.26l.02-.11H7.06l.01.18ZM11 11H5v-1h6v1Z"/></symbol>
  <symbol id="icon-large" fill="none" viewBox="0 0 24 24"><path fill="currentColor" d="M14.5 4a.5.5 0 0 1 .5.47v.12l-.02.06-.03.2-.11.76-.07.45c2.08.56 3.4 1.9 4.18 3.6a13.75 13.75 0 0 1 1.05 5.5 2.44 2.44 0 0 1 1.75 2.35c0 .62-.23 1.25-.7 1.73a2.8 2.8 0 0 1-2.04.77H5c-.87 0-1.56-.3-2.04-.77a2.44 2.44 0 0 1 0-3.46c.28-.28.63-.49 1.04-.62.03-1.92.3-3.87 1.12-5.5A6.58 6.58 0 0 1 9.23 6.2l-.07-.52-.11-.8-.03-.22L9 4.59v-.02A.5.5 0 0 1 9.5 4h5Zm-4.35 1.53a810.99 810.99 0 0 1 .8 5.95L11 12h-1v-.12a15.1 15.1 0 0 0-.15-1.2L9.5 8.13l-.13-.94a5.56 5.56 0 0 0-3.36 2.9A12.39 12.39 0 0 0 5 15.5v.5c-.63 0-1.06.2-1.33.48-.28.27-.42.64-.42 1.02s.14.75.42 1.02c.27.27.7.48 1.33.48h14c.63 0 1.06-.2 1.33-.48.28-.27.42-.64.42-1.02s-.14-.75-.42-1.02c-.27-.27-.7-.48-1.33-.48v-.56c0-1.95-.26-3.84-.95-5.35a5.28 5.28 0 0 0-3.43-3.04l-.12.9-.35 2.52c-.1.76-.15 1.32-.15 1.53h-1c0-.29.07-.92.16-1.66a153.37 153.37 0 0 1 .69-4.88l.07-.46h-3.84l.07.53ZM17 16H7v-1h10v1Z"/></symbol>
  <use href="#icon"/>
</svg>
