<svg xmlns="http://www.w3.org/2000/svg">
  <symbol id="icon" fill="none" viewBox="0 0 16 16"><path fill="currentColor" d="M10.15 11.15c.2-.2.5-.2.7 0L13 13.29v-.79a.5.5 0 1 1 1 0v2a.5.5 0 0 1-.5.5h-2a.5.5 0 0 1 0-1h.8l-2.15-2.15a.5.5 0 0 1 0-.7ZM11.5 2c.83 0 1.5.67 1.5 1.5V10h-1V3.5a.5.5 0 0 0-.5-.5h-7a.5.5 0 0 0-.5.5v9c0 .28.22.5.5.5H9v1H4.5A1.5 1.5 0 0 1 3 12.5v-9C3 2.67 3.67 2 4.5 2h7ZM10 7a.5.5 0 0 1 0 1H6a.5.5 0 0 1 0-1h4Zm0-2.5a.5.5 0 0 1 0 1H6a.5.5 0 0 1 0-1h4Z"/></symbol>
  <symbol id="icon-large" fill="none" viewBox="0 0 24 24"><path fill="currentColor" d="M15.15 17.15c.2-.2.5-.2.7 0L20 21.29V19.5a.5.5 0 0 1 1 0v3a.5.5 0 0 1-.5.5h-3a.5.5 0 0 1 0-1h1.8l-4.15-4.15a.5.5 0 0 1 0-.7ZM18.5 2c.83 0 1.5.67 1.5 1.5V16h-1V3.5a.5.5 0 0 0-.5-.5h-13a.5.5 0 0 0-.5.5v17c0 .28.22.5.5.5H14v1H5.5A1.5 1.5 0 0 1 4 20.5v-17C4 2.67 4.67 2 5.5 2h13Zm-7 16a.5.5 0 0 1 0 1h-4a.5.5 0 0 1 0-1h4Zm2-7a.5.5 0 0 1 0 1h-6a.5.5 0 0 1 0-1h6Zm3-3a.5.5 0 0 1 0 1h-9a.5.5 0 0 1 0-1h9Zm0-3a.5.5 0 0 1 0 1h-9a.5.5 0 0 1 0-1h9Z"/></symbol>
  <use href="#icon"/>
</svg>
