<svg xmlns="http://www.w3.org/2000/svg">
  <symbol id="icon" fill="none" viewBox="0 0 16 16"><path fill="currentColor" d="M5.5 11c.28 0 .5.22.5.5v2a.5.5 0 0 1-1 0v-.8l-2.15 2.15a.5.5 0 0 1-.7-.7L4.29 12H3.5a.5.5 0 0 1 0-1h2Zm6-9c.83 0 1.5.67 1.5 1.5v9c0 .83-.67 1.5-1.5 1.5H7v-1h4.5a.5.5 0 0 0 .5-.5v-9a.5.5 0 0 0-.5-.5h-7a.5.5 0 0 0-.5.5V10H3V3.5C3 2.67 3.67 2 4.5 2h7ZM10 7a.5.5 0 0 1 0 1H6a.5.5 0 0 1 0-1h4Zm0-2.5a.5.5 0 0 1 0 1H6a.5.5 0 0 1 0-1h4Z"/></symbol>
  <symbol id="icon-large" fill="none" viewBox="0 0 24 24"><path fill="currentColor" d="M8.5 17c.28 0 .5.22.5.5v3a.5.5 0 0 1-1 0v-1.8l-4.15 4.15a.5.5 0 0 1-.7-.7L7.29 18H5.5a.5.5 0 0 1 0-1h3Zm10-15c.83 0 1.5.67 1.5 1.5v17c0 .83-.67 1.5-1.5 1.5H11v-1h7.5a.5.5 0 0 0 .5-.5v-17a.5.5 0 0 0-.5-.5h-13a.5.5 0 0 0-.5.5V15H4V3.5C4 2.67 4.67 2 5.5 2h13Zm-5 9a.5.5 0 0 1 0 1h-6a.5.5 0 0 1 0-1h6Zm3-3a.5.5 0 0 1 0 1h-9a.5.5 0 0 1 0-1h9Zm0-3a.5.5 0 0 1 0 1h-9a.5.5 0 0 1 0-1h9Z"/></symbol>
  <use href="#icon"/>
</svg>
