<svg xmlns="http://www.w3.org/2000/svg">
  <symbol id="icon" fill="none" viewBox="0 0 16 16"><path fill="currentColor" d="M13.36 5.11a2.5 2.5 0 0 1 0 3.53l-4.6 4.6.36.36a.5.5 0 1 1-.7.7l-.36-.35a1 1 0 0 1 0-1.42l4.6-4.6a1.5 1.5 0 0 0-2.12-2.11L7.35 9a.5.5 0 1 1-.7-.7l3.18-3.2a1.5 1.5 0 0 0-2.12-2.12L2.76 7.94 2.68 8a.5.5 0 0 1-.7-.69l.07-.08L7 2.28a2.5 2.5 0 0 1 4.24 2.13 2.5 2.5 0 0 1 2.12.7Z"/><path fill="currentColor" d="M11.95 6.53c.2.19.2.5 0 .7l-3.54 3.54a2.5 2.5 0 0 1-3.53-3.54L8.4 3.7a.5.5 0 0 1 .71.7L5.6 7.94a1.5 1.5 0 0 0 2.12 2.12l3.53-3.53c.2-.2.51-.2.71 0Z"/></symbol>
  <symbol id="icon-large" fill="none" viewBox="0 0 24 24"><path fill="currentColor" d="M19.87 7.84a3.5 3.5 0 0 1 0 4.95l-7.07 7.07.7.71a.5.5 0 1 1-.7.7l-.71-.7a1 1 0 0 1 0-1.42l7.07-7.07a2.5 2.5 0 1 0-3.53-3.53l-4.78 4.77-.07.07a.5.5 0 0 1-.7-.7l.07-.07 4.77-4.78a2.5 2.5 0 0 0-3.54-3.53l-7.42 7.42a.5.5 0 1 1-.7-.7l7.42-7.43a3.5 3.5 0 0 1 5.87 3.32 3.5 3.5 0 0 1 3.32.92Z"/><path fill="currentColor" d="M17.75 9.96c.2.2.2.52 0 .71l-5.3 5.3a3.5 3.5 0 0 1-4.95-4.95l5.3-5.3a.5.5 0 1 1 .7.7l-5.3 5.31a2.5 2.5 0 0 0 3.54 3.54l5.3-5.3c.2-.2.51-.2.7 0Z"/></symbol>
  <use href="#icon"/>
</svg>
