<svg xmlns="http://www.w3.org/2000/svg">
  <symbol id="icon" fill="none" viewBox="0 0 16 16"><path fill="currentColor" d="M14 1.5a.5.5 0 0 1-.5.5h-11a.5.5 0 0 1 0-1h11c.28 0 .5.22.5.5Zm0 13a.5.5 0 0 1-.5.5h-11a.5.5 0 0 1 0-1h11c.28 0 .5.22.5.5ZM9.85 3.65a.5.5 0 0 1-.7.7l-.65-.64v.79a.5.5 0 0 1-1 0v-.8l-.65.65a.5.5 0 1 1-.7-.7l1.5-1.5c.2-.2.5-.2.7 0l1.5 1.5Zm0 8c.2.2.2.5 0 .7l-1.5 1.5a.5.5 0 0 1-.7 0l-1.5-1.5a.5.5 0 0 1 .7-.7l.65.64v-.79a.5.5 0 0 1 1 0v.8l.65-.65c.2-.2.5-.2.7 0ZM8.5 7a.5.5 0 0 1-1 0v-.5a.5.5 0 0 1 1 0V7Zm0 2.5a.5.5 0 0 1-1 0V9a.5.5 0 0 1 1 0v.5Z"/></symbol>
  <symbol id="icon-large" fill="none" viewBox="0 0 24 24"><path fill="currentColor" d="M20 2.5a.5.5 0 0 1-.5.5h-15a.5.5 0 0 1 0-1h15c.28 0 .5.22.5.5Zm0 19a.5.5 0 0 1-.5.5h-15a.5.5 0 0 1 0-1h15c.28 0 .5.22.5.5ZM14.35 5.15a.5.5 0 1 1-.7.7L12.5 4.71V6.5a.5.5 0 0 1-1 0V4.7l-1.15 1.15a.5.5 0 0 1-.7-.7l2-2c.2-.2.5-.2.7 0l2 2Zm0 13c.2.2.2.5 0 .7l-2 2a.5.5 0 0 1-.7 0l-2-2a.5.5 0 0 1 .7-.7l1.15 1.14V17.5a.5.5 0 0 1 1 0v1.8l1.15-1.15c.2-.2.5-.2.7 0ZM12.5 9.5a.5.5 0 0 1-1 0v-1a.5.5 0 0 1 1 0v1Zm0 3a.5.5 0 0 1-1 0v-1a.5.5 0 0 1 1 0v1Zm0 3a.5.5 0 0 1-1 0v-1a.5.5 0 0 1 1 0v1Z"/></symbol>
  <use href="#icon"/>
</svg>
