<svg xmlns="http://www.w3.org/2000/svg">
  <symbol id="icon" fill="none" viewBox="0 0 16 16"><path fill="currentColor" fill-rule="evenodd" d="M4.58 9.98a.5.5 0 0 1-.6.39l-2-.42a.5.5 0 0 1-.38-.6l.2-.97.21-.98a.5.5 0 0 1 .98.2l-.18.85.94-.54a.5.5 0 0 1 .5.87l-.8.46.74.15a.5.5 0 0 1 .39.6ZM14 13.5a.5.5 0 0 1-.5.5h-11a.5.5 0 0 1-.24-.94l11-6a.5.5 0 0 1 .74.44v6ZM4.46 13H13V8.34L4.46 13Zm2.97-6.64a.5.5 0 0 1-.18.68l-1.38.8a.5.5 0 0 1-.5-.86l1.38-.8a.5.5 0 0 1 .68.18Zm3.3-1.92a.5.5 0 0 1-.18.68L9.05 6a.5.5 0 0 1-.5-.86l1.5-.87a.5.5 0 0 1 .68.18Zm3.64-1.92-.38 1.98a.5.5 0 0 1-.98-.19l.14-.72-.96.57a.5.5 0 1 1-.52-.85l1.01-.6-.87-.17a.5.5 0 0 1 .19-.98l1.97.38a.5.5 0 0 1 .4.58Z" clip-rule="evenodd"/></symbol>
  <symbol id="icon-large" fill="none" viewBox="0 0 24 24"><path fill="currentColor" fill-rule="evenodd" d="M6.92 12.17a.5.5 0 0 1-.15.7l-2.01 1.25 1.66.35a.5.5 0 0 1-.2.98l-2.96-.63a.5.5 0 0 1-.38-.6l.6-2.93a.5.5 0 0 1 .98.2l-.38 1.87 2.15-1.35a.5.5 0 0 1 .7.16ZM21 20.5a.5.5 0 0 1-.5.5h-17a.5.5 0 0 1-.25-.93l17-10a.5.5 0 0 1 .75.43v10ZM3.96 13.93v.02-.02ZM5.34 20H20v-8.63L5.34 20Zm4.58-9.7a.5.5 0 0 1-.15.69l-1 .62a.5.5 0 0 1-.54-.85l1-.62a.5.5 0 0 1 .7.16Zm3-1.88a.5.5 0 0 1-.15.7l-1 .62a.5.5 0 0 1-.54-.85l1-.63a.5.5 0 0 1 .7.16Zm3-1.87a.5.5 0 0 1-.15.69l-1 .62a.5.5 0 0 1-.54-.85l1-.62a.5.5 0 0 1 .7.16Zm5.2-2.8-.57 2.96a.5.5 0 1 1-.98-.18l.36-1.9L17.77 6a.5.5 0 0 1-.54-.85l2-1.25-1.66-.31a.5.5 0 0 1 .19-.98l2.96.57a.5.5 0 0 1 .4.58Zm-1.09.3.01.02v-.02Z" clip-rule="evenodd"/></symbol>
  <use href="#icon"/>
</svg>
