<svg xmlns="http://www.w3.org/2000/svg">
  <symbol id="icon" fill="none" viewBox="0 0 16 16"><path fill="currentColor" d="M12.27 9c.33 0 .57.3.47.6a5 5 0 0 1-4.24 3.37V14a.5.5 0 1 1-1 0v-1.03a5 5 0 0 1-4.24-3.36c-.1-.31.14-.6.47-.61.23 0 .43.16.51.38a4 4 0 0 0 7.52 0 .56.56 0 0 1 .51-.38ZM8 1.5a3 3 0 0 1 3 3V8a3 3 0 0 1-6 0V4.5a3 3 0 0 1 3-3Zm0 1a2 2 0 0 0-2 2V8a2 2 0 0 0 4 0V4.5a2 2 0 0 0-2-2Z"/></symbol>
  <symbol id="icon-large" fill="none" viewBox="0 0 24 24"><path fill="currentColor" fill-rule="evenodd" d="M18.33 12c.31 0 .55.28.48.58a7.06 7.06 0 0 1-6.31 5.4V20H16a.5.5 0 1 1 0 1H8.5a.5.5 0 0 1 0-1h3v-2.02a7.06 7.06 0 0 1-6.3-5.4.48.48 0 0 1 .47-.58c.25 0 .45.18.51.42.66 2.6 3 4.55 5.82 4.58a6.06 6.06 0 0 0 5.82-4.58.54.54 0 0 1 .51-.42ZM12 3a4 4 0 0 1 4 4v4a4 4 0 0 1-8 0V7a4 4 0 0 1 4-4Zm0 1a3 3 0 0 0-3 3v4a3 3 0 0 0 6 0V7a3 3 0 0 0-3-3Zm1 4a.5.5 0 1 1 0 1h-2a.5.5 0 0 1 0-1h2Zm0-2a.5.5 0 1 1 0 1h-2a.5.5 0 0 1 0-1h2Z" clip-rule="evenodd"/></symbol>
  <use href="#icon"/>
</svg>
