<svg xmlns="http://www.w3.org/2000/svg">
  <symbol id="icon" fill="none" viewBox="0 0 16 16"><path fill="currentColor" fill-rule="evenodd" d="M7.25 1.86a1.5 1.5 0 0 1 1.5 0l4.2 2.42c.46.27.75.76.75 1.3v4.84a1.5 1.5 0 0 1-.75 1.3l-4.2 2.42a1.5 1.5 0 0 1-1.5 0l-4.2-2.42a1.5 1.5 0 0 1-.75-1.3V5.58c0-.54.3-1.03.75-1.3l4.2-2.42ZM3.3 10.23l.7-.4a.5.5 0 0 1 .5.85l-.61.37 3.61 2.08V8.88l-.5.3a.5.5 0 0 1-.5-.86l.61-.37-3.8-2.2v4.48Zm5.6-2.28.62.37a.5.5 0 0 1-.52.86l-.49-.3v4.25l3.61-2.08-.62-.37a.5.5 0 0 1 .52-.86l.69.42V5.75L8.9 7.95Zm-.4-4.07a.5.5 0 0 1-1 0V2.87L3.9 4.94l3.6 2.08v-.4a.5.5 0 1 1 1 0v.4l3.6-2.08-3.6-2.07v1Z" clip-rule="evenodd"/></symbol>
  <symbol id="icon-large" fill="none" viewBox="0 0 24 24"><path fill="currentColor" fill-rule="evenodd" d="M11.22 1.4a1.5 1.5 0 0 1 1.56 0l8 4.88c.45.27.72.76.72 1.28v8.92a1.5 1.5 0 0 1-.71 1.24l-8 4.89c-.49.3-1.1.3-1.57 0l-8-4.9a1.5 1.5 0 0 1-.72-1.23V7.56c0-.52.27-1 .72-1.28l8-4.89ZM3.5 15.72l.42-.19a.5.5 0 0 1 .4.92l-.7.3a.5.5 0 0 0 .12.1l7.76 4.75v-8.34l-.42.19a.5.5 0 1 1-.4-.92l.25-.11L3.5 7.89v7.84Zm9.57-3.3.26.11a.5.5 0 1 1-.4.92l-.43-.19v8.34l7.76-4.74a.5.5 0 0 0 .11-.1l-.7-.31a.5.5 0 1 1 .4-.92l.43.2V7.88l-7.43 4.54Zm-4.65 1.11a.5.5 0 0 1 .4.92l-2.24 1a.5.5 0 0 1-.4-.92l2.24-1Zm6.5.26a.5.5 0 0 1 .66-.26l2.25 1a.5.5 0 1 1-.4.92l-2.26-1a.5.5 0 0 1-.25-.66ZM12.5 2.88a.5.5 0 0 1-1 0v-.49L3.96 7l7.54 4.62a.5.5 0 0 1 1 0L20.04 7 12.5 2.4v.48ZM12 7.63c.28 0 .5.22.5.5v1.75a.5.5 0 1 1-1 0V8.13c0-.28.22-.5.5-.5Zm0-3.5c.28 0 .5.22.5.5v1.75a.5.5 0 0 1-1 0V4.63c0-.28.22-.5.5-.5Z" clip-rule="evenodd"/></symbol>
  <use href="#icon"/>
</svg>
