<svg xmlns="http://www.w3.org/2000/svg">
  <symbol id="icon" fill="none" viewBox="0 0 16 16"><path fill="currentColor" d="M4.5 2c.28 0 .5.22.5.5V3h1.25a.5.5 0 0 1 0 1H5v.5a.5.5 0 0 1-.5.5H4v6h.5c.28 0 .5.22.5.5v.5h6v-.5c0-.28.22-.5.5-.5h.5V5h-.5a.5.5 0 0 1-.5-.5V4H9.75a.5.5 0 0 1 0-1H11v-.5c0-.28.22-.5.5-.5h2c.28 0 .5.22.5.5v2a.5.5 0 0 1-.5.5H13v6h.5c.28 0 .5.22.5.5v2a.5.5 0 0 1-.5.5h-2a.5.5 0 0 1-.5-.5V13H5v.5a.5.5 0 0 1-.5.5h-2a.5.5 0 0 1-.5-.5v-2c0-.28.22-.5.5-.5H3V5h-.5a.5.5 0 0 1-.5-.5v-2c0-.28.22-.5.5-.5h2ZM3 13h1v-1H3v1Zm9 0h1v-1h-1v1ZM8 1c.28 0 .5.22.5.5v5.8l1.65-1.65a.5.5 0 0 1 .7.7l-2.5 2.5a.5.5 0 0 1-.7 0l-2.5-2.5a.5.5 0 0 1 .7-.7L7.5 7.29V1.5c0-.28.22-.5.5-.5ZM3 4h1V3H3v1Zm9 0h1V3h-1v1Z"/></symbol>
  <symbol id="icon-large" fill="none" viewBox="0 0 24 24"><path fill="currentColor" d="M6.5 3c.28 0 .5.22.5.5v1h3a.5.5 0 0 1 0 1H7v1a.5.5 0 0 1-.5.5h-1v10h1c.28 0 .5.22.5.5v1h10v-1c0-.28.22-.5.5-.5h1V7h-1a.5.5 0 0 1-.5-.5v-1h-3a.5.5 0 0 1 0-1h3v-1c0-.28.22-.5.5-.5h3c.28 0 .5.22.5.5v3a.5.5 0 0 1-.5.5h-1v10h1c.28 0 .5.22.5.5v3a.5.5 0 0 1-.5.5h-3a.5.5 0 0 1-.5-.5v-1H7v1a.5.5 0 0 1-.5.5h-3a.5.5 0 0 1-.5-.5v-3c0-.28.22-.5.5-.5h1V7h-1a.5.5 0 0 1-.5-.5v-3c0-.28.22-.5.5-.5h3ZM4 20h2v-2H4v2Zm14 0h2v-2h-2v2ZM12 2c.28 0 .5.22.5.5v9.3l3.15-3.15a.5.5 0 0 1 .7.7l-4 4a.5.5 0 0 1-.7 0l-4-4a.5.5 0 0 1 .7-.7l3.15 3.14V2.5c0-.28.22-.5.5-.5ZM4 6h2V4H4v2Zm14 0h2V4h-2v2Z"/></symbol>
  <use href="#icon"/>
</svg>
