<svg xmlns="http://www.w3.org/2000/svg">
  <symbol id="icon" fill="none" viewBox="0 0 16 16"><path fill="currentColor" d="M11 2a4 4 0 0 1 4 4v4a4 4 0 0 1-3.8 4H4.8A4 4 0 0 1 1 10.2V6a4 4 0 0 1 4-4h6ZM5 3a3 3 0 0 0-3 3v4a3 3 0 0 0 3 3h6a3 3 0 0 0 3-3V6a3 3 0 0 0-3-3H5Zm5.2 2.01A2 2 0 0 1 12 7v2a2 2 0 0 1-2 2H6a2 2 0 0 1-1.99-1.8L4 9V7c0-1.1.9-2 2-2h4l.2.01ZM6 6a1 1 0 0 0-1 1v2a1 1 0 0 0 1 1h4a1 1 0 0 0 1-1V7a1 1 0 0 0-1-1H6Z"/></symbol>
  <symbol id="icon-large" fill="none" viewBox="0 0 24 24"><path fill="currentColor" d="M16.3 3A6 6 0 0 1 22 9v6a6 6 0 0 1-5.7 6H8a6 6 0 0 1-6-5.7V9a6 6 0 0 1 6-6h8.3ZM8 4a5 5 0 0 0-5 5v6a5 5 0 0 0 5 5h8a5 5 0 0 0 5-5V9a5 5 0 0 0-5-5H8Zm8.15 2A3 3 0 0 1 19 9v6a3 3 0 0 1-2.85 3H8a3 3 0 0 1-3-3V9a3 3 0 0 1 3-3h8.15ZM8 7a2 2 0 0 0-2 2v6c0 1.1.9 2 2 2h8a2 2 0 0 0 2-2V9a2 2 0 0 0-2-2H8Zm6.2 2.01A2 2 0 0 1 16 11v2a2 2 0 0 1-2 2h-4a2 2 0 0 1-1.99-1.8L8 13v-2c0-1.1.9-2 2-2h4l.2.01ZM10 10a1 1 0 0 0-1 1v2a1 1 0 0 0 1 1h4a1 1 0 0 0 1-1v-2a1 1 0 0 0-1-1h-4Z"/></symbol>
  <use href="#icon"/>
</svg>
