<svg xmlns="http://www.w3.org/2000/svg">
  <symbol id="icon" fill="none" viewBox="0 0 16 16"><path fill="currentColor" d="M13.5 6c.28 0 .5.22.5.5v8a.5.5 0 0 1-1 0v-1H3v1a.5.5 0 0 1-1 0v-8a.5.5 0 0 1 1 0v1h10v-1c0-.28.22-.5.5-.5ZM3 12.5h10v-4H3v4Zm5-12c.18 0 .34.1.43.24L9.7 2.87c.19.32.29.69.29 1.06V4a2 2 0 1 1-4 0v-.07a2 2 0 0 1 .3-1.06L7.56.74 7.61.7A.5.5 0 0 1 8 .5Zm-.85 2.89c-.1.16-.15.35-.15.54V4a1 1 0 0 0 2 0v-.07c0-.19-.05-.38-.15-.54L8 1.97 7.15 3.4Z"/></symbol>
  <symbol id="icon-large" fill="none" viewBox="0 0 24 24"><path fill="currentColor" d="M20.5 9c.28 0 .5.22.5.5v11a.5.5 0 0 1-1 0V20h-1.5a.5.5 0 0 1-.5-.5V19H6v.5a.5.5 0 0 1-.5.5H4v.5a.5.5 0 0 1-1 0v-11a.5.5 0 0 1 1 0v.5h1.5c.28 0 .5.22.5.5v.5h12v-.5a.5.5 0 0 1 .5-.5H20v-.5c0-.28.22-.5.5-.5ZM4 19h1v-8H4v8Zm15 0h1v-8h-1v8ZM6 18h12v-6H6v6Zm6-16a.5.5 0 0 1 .38.18l1.82 2.18c.52.62.8 1.4.8 2.21v.38a3 3 0 0 1-6 0v-.38c0-.8.28-1.6.8-2.21l1.82-2.18.08-.08A.5.5 0 0 1 12 2Zm-1.43 3c-.37.44-.57 1-.57 1.57v.38a2 2 0 1 0 4 0v-.38c0-.57-.2-1.13-.57-1.57L12 3.28 10.57 5Z"/></symbol>
  <use href="#icon"/>
</svg>
