<svg xmlns="http://www.w3.org/2000/svg">
  <symbol id="icon" fill="none" viewBox="0 0 16 16"><path fill="currentColor" d="M12.43 10.26a1.56 1.56 0 0 1 2.03 2.36l-2.63 2.26a.5.5 0 0 1-.33.12H10a.5.5 0 0 1-.5-.5V13a.5.5 0 0 1 .17-.38l2.76-2.36ZM4 2c.28 0 .5.22.5.5v.9h9c.83 0 1.5.68 1.5 1.5V9h-1V4.9a.5.5 0 0 0-.5-.5h-9V10l-.01.1a.5.5 0 0 1-.49.4h-.75a1.25 1.25 0 1 0 0 2.5H8.5v1H3.25C2.01 14 1 13 1 11.75V4.5A2.5 2.5 0 0 1 3.5 2H4Zm9.84 9.05a.56.56 0 0 0-.76-.03l-2.58 2.21V14h.81l2.5-2.14a.56.56 0 0 0 .03-.81ZM9.86 5.92a.5.5 0 0 1 .83.37V10a.5.5 0 0 1-.5.5H6a.5.5 0 0 1-.33-.88l4.19-3.7ZM3.5 3C2.67 3 2 3.67 2 4.5v5.38c.36-.24.79-.38 1.25-.38h.25V3Zm3.82 6.5h2.37V7.4L7.32 9.5Z"/></symbol>
  <symbol id="icon-large" fill="none" viewBox="0 0 24 24"><path fill="currentColor" d="M19.94 15.85a1.5 1.5 0 0 1 2.12 0l.59.59a1.5 1.5 0 0 1 0 2.12l-4.3 4.3A.5.5 0 0 1 18 23h-2a.5.5 0 0 1-.5-.5v-2a.5.5 0 0 1 .15-.35l4.29-4.3Zm-3.44 4.86V22h1.3l3-3-1.3-1.3-3 3ZM6.5 3c.28 0 .5.22.5.5V5h13.5c.83 0 1.5.67 1.5 1.5V14h-1V6.5a.5.5 0 0 0-.5-.5H7v8.5l-.01.1a.5.5 0 0 1-.49.4H5a2 2 0 0 0 0 4h9v1H5a3 3 0 0 1-3-2.85V5.5A2.5 2.5 0 0 1 4.5 3h2Zm14.85 13.56a.5.5 0 0 0-.7 0l-.44.44 1.29 1.3.44-.45a.5.5 0 0 0 0-.7l-.59-.59Zm-5.2-8.41a.5.5 0 0 1 .85.35v7a.5.5 0 0 1-.5.5h-7a.5.5 0 0 1-.35-.85l7-7ZM10.7 15H16V9.7L10.7 15ZM4.5 4C3.67 4 3 4.67 3 5.5v9.27A2.99 2.99 0 0 1 5 14h1V4H4.5Z"/></symbol>
  <use href="#icon"/>
</svg>
