<svg xmlns="http://www.w3.org/2000/svg">
  <symbol id="icon" fill="none" viewBox="0 0 16 16"><path fill="currentColor" d="M11.67 12.55c1.24.06 2.3.82 2.79 1.9.08.17.03.38-.11.51-.28.25-.7.06-.88-.26a2.25 2.25 0 0 0-3.94 0c-.18.33-.6.53-.87.28a.45.45 0 0 1-.12-.52 3.25 3.25 0 0 1 2.97-1.92h.16ZM3.5 9a.5.5 0 0 1 .35.15l1.5 1.5a.5.5 0 0 1-.7.7L4 10.71v3.12c0 .1.07.17.17.17H7.5v1H4.17C3.52 15 3 14.48 3 13.83v-3.12l-.65.64a.5.5 0 0 1-.7-.7l1.5-1.5A.5.5 0 0 1 3.5 9Zm8-1a2 2 0 1 1 0 4 2 2 0 0 1 0-4Zm0 1a1 1 0 1 0 0 2 1 1 0 0 0 0-2Zm-7-3.46c1.32 0 2.45.78 2.96 1.9.08.18.03.4-.11.52-.28.25-.7.06-.88-.27a2.24 2.24 0 0 0-3.93.02c-.18.33-.6.52-.88.28a.45.45 0 0 1-.12-.53A3.25 3.25 0 0 1 4.5 5.54ZM11.83 1c.65 0 1.17.52 1.17 1.17v3.12l.65-.64a.5.5 0 0 1 .7.7l-1.5 1.5a.5.5 0 0 1-.7 0l-1.5-1.5a.5.5 0 0 1 .7-.7l.65.64V2.17c0-.1-.07-.17-.17-.17H7V1h4.83ZM4.5 1a2 2 0 1 1 0 4 2 2 0 0 1 0-4Zm0 1a1 1 0 1 0 0 2 1 1 0 0 0 0-2Z"/></symbol>
  <symbol id="icon-large" fill="none" viewBox="0 0 24 24"><path fill="currentColor" d="M4 15.5a.5.5 0 0 1 .35.15l1.5 1.5a.5.5 0 0 1-.7.7l-.65-.64v3.29c0 .28.22.5.5.5h6v1H5a1.5 1.5 0 0 1-1.5-1.5v-3.3l-.65.65a.5.5 0 1 1-.7-.7l1.5-1.5A.5.5 0 0 1 4 15.5Zm13 .5c2.72 0 4.53 1.9 4.92 4.43.14.9-.62 1.57-1.42 1.57h-7c-.8 0-1.56-.67-1.42-1.57.4-2.52 2.2-4.43 4.92-4.43Zm0 1c-2.15 0-3.6 1.47-3.93 3.58-.03.19.13.42.43.42h7c.3 0 .46-.23.43-.42C20.6 18.47 19.15 17 17 17Zm0-6.5a2.5 2.5 0 1 1 0 5 2.5 2.5 0 0 1 0-5Zm0 1a1.5 1.5 0 1 0 0 3 1.5 1.5 0 0 0 0-3ZM7 8c2.72 0 4.53 1.9 4.92 4.43.14.9-.62 1.57-1.42 1.57h-7c-.8 0-1.56-.67-1.42-1.57C2.48 9.9 4.28 8 7 8Zm0 1c-2.15 0-3.6 1.47-3.93 3.58-.03.19.13.42.43.42h7c.3 0 .46-.23.43-.42C10.6 10.47 9.15 9 7 9Zm12-7c.83 0 1.5.67 1.5 1.5v4.8l.65-.65a.5.5 0 1 1 .7.7l-1.5 1.5a.5.5 0 0 1-.7 0l-1.5-1.5a.5.5 0 0 1 .7-.7l.65.64V3.5A.5.5 0 0 0 19 3h-9V2h9ZM7 2.5a2.5 2.5 0 1 1 0 5 2.5 2.5 0 0 1 0-5Zm0 1a1.5 1.5 0 1 0 0 3 1.5 1.5 0 0 0 0-3Z"/></symbol>
  <use href="#icon"/>
</svg>
