<svg xmlns="http://www.w3.org/2000/svg">
  <symbol id="icon" fill="none" viewBox="0 0 16 16"><path fill="currentColor" d="M2.06 10.76a.5.5 0 0 1 .68-.2l5.02 2.74a.5.5 0 0 0 .48 0l5.02-2.74a.5.5 0 0 1 .48.88l-5.02 2.74a1.5 1.5 0 0 1-1.44 0l-5.02-2.74a.5.5 0 0 1-.2-.68Zm0-3a.5.5 0 0 1 .68-.2l5.02 2.74a.5.5 0 0 0 .48 0l5.02-2.74a.5.5 0 0 1 .48.88l-5.02 2.74a1.5 1.5 0 0 1-1.44 0L2.26 8.44a.5.5 0 0 1-.2-.68Zm5.22-5.94a1.5 1.5 0 0 1 1.44 0l5.02 2.74a.5.5 0 0 1 0 .88L8.72 8.18a1.5 1.5 0 0 1-1.44 0L2.26 5.44a.5.5 0 0 1 0-.88l5.02-2.74ZM3.54 5l4.22 2.3a.5.5 0 0 0 .48 0l.52-.3-1.95-1.55a1.86 1.86 0 0 0-.57-.3l-1.85-.61-.85.46Zm4.7-2.3a.5.5 0 0 0-.48 0L5.32 4.03l1.53.51c.38.13.7.3.95.5l1.86 1.48L12.46 5 8.24 2.7Zm.95 1.99c.3-.18.78-.18 1.08 0 .3.17.3.45 0 .62-.3.17-.78.17-1.08 0-.3-.17-.3-.45 0-.62Z"/></symbol>
  <symbol id="icon-large" fill="none" viewBox="0 0 24 24"><path fill="currentColor" d="M20.25 15.57a.5.5 0 0 1 .5.86l-8.5 5a.5.5 0 0 1-.5 0l-8.5-5a.5.5 0 0 1 .5-.86L12 20.42l8.25-4.85Zm0-4a.5.5 0 0 1 .5.86l-8.5 5a.5.5 0 0 1-.5 0l-8.5-5a.5.5 0 0 1 .5-.86L12 16.42l8.25-4.85Zm-8.5-9a.5.5 0 0 1 .5 0l8.5 5a.5.5 0 0 1 0 .86l-8.5 5a.5.5 0 0 1-.5 0l-8.5-5a.5.5 0 0 1 0-.86l8.5-5ZM4.49 8 12 12.42l1.18-.7v-1.16c0-.29-.37-.53-.86-.57-1.24-.1-2.1-.78-1.89-1.5l.15-.5c.18-.64-.6-1.22-1.7-1.28l-2.02-.1L4.49 8Zm3.47-2.05L9 6.01c1.81.1 3.1 1.05 2.8 2.09l-.15.51c-.1.33.3.63.85.68 1.1.09 1.92.63 1.92 1.27V11l5.1-3L12 3.58 7.96 5.95Zm6.66 1.55a1.91 1.91 0 0 1 1.73 0c.48.28.48.72 0 1s-1.26.28-1.73 0c-.48-.28-.48-.72 0-1Z"/></symbol>
  <use href="#icon"/>
</svg>
