<svg xmlns="http://www.w3.org/2000/svg">
  <symbol id="icon" fill="none" viewBox="0 0 16 16"><path fill="currentColor" d="M11.75 7.75a3.75 3.75 0 1 1 0 7.5 3.75 3.75 0 0 1 0-7.5Zm0 1a2.75 2.75 0 1 0 0 5.5 2.75 2.75 0 0 0 0-5.5Zm1.38 1.42a.5.5 0 0 1 .74.66l-2.16 2.44a.5.5 0 0 1-.75 0l-1.08-1.22a.5.5 0 0 1 .74-.66l.71.8 1.8-2.02ZM4.96 3.16a.5.5 0 0 1 .73.68l-2.5 2.64 2.5 2.64a.5.5 0 0 1-.73.69L2.14 6.83a.5.5 0 0 1 0-.7l2.82-2.97Zm4.29-.14c.26.09.4.37.33.63L7.69 9.61a.5.5 0 1 1-.95-.3l1.88-5.96a.5.5 0 0 1 .63-.33Zm1.39.12a.5.5 0 0 1 .7.02l2.83 2.98c.19.2.19.5 0 .7l-.82.8L13 7.3l-.36-.35.47-.47-2.49-2.63a.5.5 0 0 1 .02-.7Z"/></symbol>
  <symbol id="icon-large" fill="none" viewBox="0 0 24 24"><path fill="currentColor" d="M18 13.5a4.5 4.5 0 1 1 0 9 4.5 4.5 0 0 1 0-9Zm0 1a3.5 3.5 0 1 0 0 7 3.5 3.5 0 0 0 0-7Zm1.63 1.67a.5.5 0 0 1 .74.66l-2.66 3a.5.5 0 0 1-.75 0l-1.33-1.5a.5.5 0 0 1 .74-.66l.96 1.08 2.3-2.58ZM7.64 5.65a.5.5 0 0 1 .7.7L4.22 10.5l4.17 4.15a.5.5 0 0 1-.7.7l-4.53-4.5a.5.5 0 0 1 0-.7l4.49-4.5Zm5.38.2a.5.5 0 0 1 .95.3l-3 9a.5.5 0 0 1-.95-.3l3-9Zm2.63-.2c.2-.2.5-.2.7 0l4.5 4.5c.2.2.2.5 0 .7l-1.5 1.5-.7-.7 1.14-1.15-4.14-4.15a.5.5 0 0 1 0-.7Z"/></symbol>
  <use href="#icon"/>
</svg>
