<svg xmlns="http://www.w3.org/2000/svg">
  <symbol id="icon" fill="none" viewBox="0 0 16 16"><path fill="currentColor" d="M10.26 9.06a.5.5 0 0 1 .5.02l4 2.5a.5.5 0 0 1 0 .84l-4 2.5a.5.5 0 0 1-.76-.42v-5c0-.18.1-.35.26-.44ZM11 13.6l2.56-1.6L11 10.4v3.2ZM4.97 3.16a.5.5 0 0 1 .72.68L3.2 6.48l2.5 2.64a.5.5 0 0 1-.72.69L2.14 6.83a.5.5 0 0 1 0-.7l2.83-2.97Zm4.28-.14c.26.09.4.37.33.63L7.69 9.61a.5.5 0 0 1-.95-.3l1.88-5.96a.5.5 0 0 1 .63-.33Zm1.39.12a.5.5 0 0 1 .7.02l2.84 2.98c.18.2.18.5-.01.7l-2.02 2.01-.7-.7 1.66-1.68-2.49-2.63a.5.5 0 0 1 .02-.7Z"/></symbol>
  <symbol id="icon-large" fill="none" viewBox="0 0 24 24"><path fill="currentColor" d="M15.5 13.81a.5.5 0 0 1 .51.02l6 3.75a.5.5 0 0 1 0 .84l-6 3.75a.5.5 0 0 1-.76-.42v-7.5c0-.18.1-.35.26-.44Zm.75 7.04L20.81 18l-4.56-2.85v5.7ZM7.63 5.9a.5.5 0 0 1 .72.68l-3.91 4.13 3.91 4.13a.5.5 0 0 1-.72.69l-4.24-4.47a.5.5 0 0 1 0-.7L7.63 5.9Zm6.17-.14c.26.09.4.37.32.63l-2.82 8.95a.5.5 0 1 1-.96-.3l2.83-8.95a.5.5 0 0 1 .63-.33Zm2.33.12a.5.5 0 0 1 .7.02l4.25 4.47c.19.2.18.5 0 .7l-2.79 2.77-.7-.7 2.43-2.44-3.9-4.12a.5.5 0 0 1 .01-.7Z"/></symbol>
  <use href="#icon"/>
</svg>
