<svg xmlns="http://www.w3.org/2000/svg">
  <symbol id="icon" fill="none" viewBox="0 0 16 16"><path fill="currentColor" d="M4.8 4.67a.5.5 0 0 1 .73.7L3.03 8l2.5 2.64a.5.5 0 0 1-.73.69L1.97 8.34a.5.5 0 0 1 0-.68L4.8 4.67Zm5.67-.01a.5.5 0 0 1 .71.01l2.83 2.99a.5.5 0 0 1 0 .68l-2.83 2.99a.5.5 0 0 1-.72-.7L12.96 8l-2.5-2.64a.5.5 0 0 1 .01-.7Zm-2.01.2a.5.5 0 0 1 .95.3l-1.89 5.97a.5.5 0 1 1-.95-.3l1.89-5.96Z"/></symbol>
  <symbol id="icon-large" fill="none" viewBox="0 0 24 24"><path fill="currentColor" d="M7.38 7.18a.5.5 0 0 1 .73.7L4.19 12l3.92 4.13a.5.5 0 0 1-.73.69l-4.24-4.48a.5.5 0 0 1 0-.68l4.24-4.48Zm8.5-.01a.5.5 0 0 1 .7.01l4.25 4.48c.19.19.19.5 0 .68l-4.24 4.48a.5.5 0 1 1-.73-.7L19.78 12l-3.92-4.13a.5.5 0 0 1 .02-.7Zm-2.96.2a.5.5 0 0 1 .96.3l-2.83 8.95a.5.5 0 1 1-.96-.3l2.83-8.94Z"/></symbol>
  <use href="#icon"/>
</svg>
