<svg xmlns="http://www.w3.org/2000/svg">
  <symbol id="icon" fill="none" viewBox="0 0 16 16"><path fill="currentColor" fill-rule="evenodd" d="M1.15 1.15c.2-.2.5-.2.7 0l13 13a.5.5 0 0 1-.7.7l-13-13a.5.5 0 0 1 0-.7ZM2.5 12c.28 0 .5.22.5.5 0 .24.17.44.4.49l.2.02a.5.5 0 0 1-.1.99A1.5 1.5 0 0 1 2 12.5c0-.28.22-.5.5-.5ZM7 13a.5.5 0 0 1 0 1H5.5a.5.5 0 0 1 0-1H7Zm3.5 0a.5.5 0 0 1 0 1H9a.5.5 0 0 1 0-1h1.5Zm-8-4.5c.28 0 .5.22.5.5v1.5a.5.5 0 0 1-1 0V9c0-.28.23-.5.5-.5Zm11 0c.28 0 .5.22.5.5v1.5a.5.5 0 0 1-1 0V9c0-.28.22-.5.5-.5ZM2.5 5c.28 0 .5.22.5.5V7a.5.5 0 0 1-1 0V5.5c0-.28.23-.5.5-.5Zm11 0c.28 0 .5.22.5.5V7a.5.5 0 1 1-1 0V5.5c0-.28.22-.5.5-.5Zm-1-3c.83 0 1.5.67 1.5 1.5a.5.5 0 0 1-1 0 .5.5 0 0 0-.4-.49l-.2-.02a.5.5 0 0 1 .1-.99ZM7 2a.5.5 0 0 1 0 1H5.5a.5.5 0 0 1 0-1H7Zm3.5 0a.5.5 0 0 1 0 1H9a.5.5 0 0 1 0-1h1.5Z" clip-rule="evenodd"/></symbol>
  <symbol id="icon-large" fill="none" viewBox="0 0 24 24"><path fill="currentColor" fill-rule="evenodd" d="M2.15 2.15c.2-.2.5-.2.7 0l19 19a.5.5 0 0 1-.7.7l-19-19a.5.5 0 0 1 0-.7ZM3.5 18c.28 0 .5.22.5.5v1c0 .28.22.5.5.5h1a.5.5 0 1 1 0 1h-1A1.5 1.5 0 0 1 3 19.5v-1c0-.28.22-.5.5-.5Zm7 2a.5.5 0 1 1 0 1h-2a.5.5 0 0 1 0-1h2Zm5 0a.5.5 0 1 1 0 1h-2a.5.5 0 1 1 0-1h2Zm-12-7c.28 0 .5.22.5.5v2a.5.5 0 0 1-1 0v-2c0-.28.22-.5.5-.5Zm17 0c.28 0 .5.22.5.5v2a.5.5 0 0 1-1 0v-2c0-.28.22-.5.5-.5Zm-17-5c.28 0 .5.22.5.5v2a.5.5 0 0 1-1 0v-2c0-.28.22-.5.5-.5Zm17 0c.28 0 .5.22.5.5v2a.5.5 0 0 1-1 0v-2c0-.28.22-.5.5-.5Zm-1-5c.83 0 1.5.67 1.5 1.5v1a.5.5 0 0 1-1 0v-1a.5.5 0 0 0-.5-.5h-1a.5.5 0 1 1 0-1h1Zm-9 0a.5.5 0 0 1 0 1h-2a.5.5 0 0 1 0-1h2Zm5 0a.5.5 0 0 1 0 1h-2a.5.5 0 1 1 0-1h2Z" clip-rule="evenodd"/></symbol>
  <use href="#icon"/>
</svg>
