<svg xmlns="http://www.w3.org/2000/svg">
  <symbol id="icon" fill="none" viewBox="0 0 16 16"><path fill="currentColor" d="M13.5 6c.28 0 .5.22.5.5v8a.5.5 0 0 1-1 0v-1H3v1a.5.5 0 0 1-1 0v-8a.5.5 0 0 1 1 0v1h10v-1c0-.28.22-.5.5-.5ZM3 12.5h10v-4H3v4ZM9.5 4c.28 0 .49.24.62.48A1 1 0 0 0 11 5v1a2 2 0 0 1-1.5-.68 2 2 0 0 1-3 0A2 2 0 0 1 5 6V5a1 1 0 0 0 .88-.52C6 4.24 6.22 4 6.5 4c.28 0 .49.24.62.48a1 1 0 0 0 1.76 0C9 4.24 9.22 4 9.5 4Zm0-3c.28 0 .49.24.62.48A1 1 0 0 0 11 2v1a2 2 0 0 1-1.5-.68 2 2 0 0 1-3 0A2 2 0 0 1 5 3V2a1 1 0 0 0 .88-.52C6 1.24 6.22 1 6.5 1c.28 0 .49.24.62.48a1 1 0 0 0 1.76 0C9 1.24 9.22 1 9.5 1Z"/></symbol>
  <symbol id="icon-large" fill="none" viewBox="0 0 24 24"><path fill="currentColor" fill-rule="evenodd" d="M20.5 9c.28 0 .5.22.5.5v11a.5.5 0 0 1-1 0V20h-1.5a.5.5 0 0 1-.5-.5V19H6v.5a.5.5 0 0 1-.5.5H4v.5a.5.5 0 0 1-1 0v-11a.5.5 0 1 1 1 0v.5h1.5c.28 0 .5.22.5.5v.5h12v-.5a.5.5 0 0 1 .5-.5H20v-.5c0-.28.22-.5.5-.5ZM4 19h1v-8H4v8Zm15 0h1v-8h-1v8ZM6 18h12v-6H6v6Zm8.22-11c.15 0 .3.05.4.15l.32.29c.4.36.94.56 1.5.56H17v1h-.55c-.83 0-1.63-.29-2.23-.8a3.45 3.45 0 0 1-4.44 0c-.6.51-1.4.8-2.22.8H7V8h.56c.56 0 1.1-.2 1.5-.56l.33-.3c.1-.09.24-.14.39-.14.15 0 .29.05.4.15l.32.29c.4.36.94.56 1.5.56s1.1-.2 1.5-.56l.33-.3a.6.6 0 0 1 .4-.14Zm0-3c.15 0 .3.05.4.15l.32.29c.4.36.94.56 1.5.56H17v1h-.55c-.83 0-1.63-.29-2.23-.8a3.45 3.45 0 0 1-4.44 0c-.6.51-1.4.8-2.22.8H7V5h.56c.56 0 1.1-.2 1.5-.56l.33-.3c.1-.09.24-.14.39-.14.15 0 .29.05.4.15l.32.29c.4.36.94.56 1.5.56s1.1-.2 1.5-.56l.33-.3a.6.6 0 0 1 .4-.14Z" clip-rule="evenodd"/></symbol>
  <use href="#icon"/>
</svg>
