<svg xmlns="http://www.w3.org/2000/svg">
  <symbol id="icon" fill="none" viewBox="0 0 16 16"><path fill="currentColor" d="M8.5 12H14v1H8.5v1h-1v-1H2v-1h5.5v-1h1v1ZM4.15 5.65a.5.5 0 0 1 .7.7L3.72 7.5h2.8a.5.5 0 1 1 0 1H3.7l1.15 1.15a.5.5 0 0 1-.71.7l-2-2a.5.5 0 0 1 0-.7l2-2Zm7 0c.2-.2.5-.2.7 0l2 2a.5.5 0 0 1 0 .7l-2 2a.5.5 0 0 1-.7-.7l1.14-1.15H9.5a.5.5 0 0 1 0-1h2.8l-1.15-1.15a.5.5 0 0 1 0-.7ZM8.5 3H14v1H8.5v1h-1V4H2V3h5.5V2h1v1Z"/></symbol>
  <symbol id="icon-large" fill="none" viewBox="0 0 24 24"><path fill="currentColor" d="M12.5 18H21v1h-8.5v2h-1v-2H3v-1h8.5v-3h1zM6.65 8.15a.5.5 0 1 1 .7.7L4.72 11.5H10a.5.5 0 1 1 0 1H4.7l2.66 2.65a.5.5 0 0 1-.71.7l-3.5-3.5a.5.5 0 0 1 0-.7zm10 0a.5.5 0 0 1 .7 0l3.5 3.5a.5.5 0 0 1 0 .7l-3.5 3.5a.5.5 0 0 1-.7-.7l2.64-2.65H14a.5.5 0 0 1 0-1h5.3l-2.65-2.65a.5.5 0 0 1 0-.7M12.5 5H21v1h-8.5v3h-1V6H3V5h8.5V3h1z"/></symbol>
  <use href="#icon"/>
</svg>
