<svg xmlns="http://www.w3.org/2000/svg">
  <symbol id="icon" fill="none" viewBox="0 0 16 16"><path fill="currentColor" d="M7.25 1.85a1.5 1.5 0 0 1 1.5 0l4.2 2.43c.46.27.75.76.75 1.3v4.84a1.5 1.5 0 0 1-.75 1.3l-4.2 2.42a1.5 1.5 0 0 1-1.5 0l-4.2-2.42a1.5 1.5 0 0 1-.75-1.3V5.58c0-.54.29-1.03.75-1.3l4.2-2.43Zm1 .87a.5.5 0 0 0-.5 0l-4.2 2.42a.5.5 0 0 0-.25.44v4.84c0 .18.1.35.25.43l4.2 2.43a.5.5 0 0 0 .5 0l4.2-2.43a.5.5 0 0 0 .25-.43V5.58a.5.5 0 0 0-.25-.44l-4.2-2.42ZM5.5 5.88a1 1 0 0 1 1.51-.86l3.53 2.12a1 1 0 0 1 0 1.72l-3.53 2.11a1 1 0 0 1-1.51-.85V5.88Zm1 4.24L10.03 8 6.5 5.88v4.24Z"/></symbol>
  <symbol id="icon-large" fill="none" viewBox="0 0 24 24"><path fill="currentColor" fill-rule="evenodd" d="M11.22 1.4a1.5 1.5 0 0 1 1.56 0l8 4.88c.45.27.72.76.72 1.28v8.88c0 .52-.27 1-.72 1.28l-8 4.89c-.48.3-1.08.3-1.56 0l-8-4.9a1.5 1.5 0 0 1-.72-1.27V7.56c0-.52.27-1 .72-1.28l8-4.89Zm1.04.85a.5.5 0 0 0-.52 0l-8 4.88a.5.5 0 0 0-.24.43v8.88c0 .17.1.34.24.43l8 4.89c.16.1.36.1.52 0l8-4.9a.5.5 0 0 0 .24-.42V7.56a.5.5 0 0 0-.24-.43l-8-4.88ZM8 7.84c0-.98 1.07-1.58 1.9-1.07l6.81 4.16c.8.5.8 1.65 0 2.14l-6.8 4.16c-.84.5-1.91-.1-1.91-1.07V7.84Zm1.38-.22a.25.25 0 0 0-.38.22v8.32c0 .2.21.32.38.22l6.81-4.17a.25.25 0 0 0 0-.42L9.38 7.62Z" clip-rule="evenodd"/></symbol>
  <use href="#icon"/>
</svg>
