<svg xmlns="http://www.w3.org/2000/svg">
  <symbol id="icon" fill="none" viewBox="0 0 16 16"><path fill="currentColor" d="M13.5 6c.28 0 .5.22.5.5v8a.5.5 0 0 1-1 0v-1H3v1a.5.5 0 0 1-1 0v-8a.5.5 0 0 1 1 0v1h2v1H3v4h10v-4h-1v-1h1v-1c0-.28.22-.5.5-.5ZM8.73 4a.5.5 0 0 1 .42.23l1.48 2.28c.24.38.37.81.37 1.26v.05a2.26 2.26 0 0 1-4.53 0v-.05c0-.45.13-.88.37-1.26L8.3 4.23A.5.5 0 0 1 8.73 4ZM7.68 7.06c-.14.2-.21.46-.21.71v.05a1.26 1.26 0 0 0 2.53 0v-.05c0-.25-.08-.5-.21-.71L8.73 5.42 7.68 7.06ZM5.73 1c.16 0 .3.07.4.2l1.22 1.62a1.93 1.93 0 0 1-.93 2.98l-.05.02a2 2 0 0 1-1.27 0l-.05-.02a1.92 1.92 0 0 1-.93-2.98L5.33 1.2l.08-.08A.5.5 0 0 1 5.73 1Zm-.81 2.42a.93.93 0 0 0 .44 1.43l.06.02a1 1 0 0 0 .63 0l.05-.02a.92.92 0 0 0 .45-1.43l-.82-1.09-.81 1.1Z"/></symbol>
  <symbol id="icon-large" fill="none" viewBox="0 0 24 24"><path fill="currentColor" fill-rule="evenodd" d="M20.5 9.51c.28 0 .5.23.5.5v11a.5.5 0 0 1-1 0v-.5h-1.5a.5.5 0 0 1-.5-.5v-.5H6v.5a.5.5 0 0 1-.5.5H4v.5a.5.5 0 0 1-1 0v-11a.5.5 0 0 1 1 0v.5h1.5c.28 0 .5.23.5.5v.5h2v1H6v6h12v-6h-2v-1h2v-.5a.5.5 0 0 1 .5-.5H20v-.5c0-.27.22-.5.5-.5ZM4 19.51h1v-8H4v8Zm15 0h1v-8h-1v8Zm-7-10.5c.16 0 .3.08.4.2l1.5 2a2.38 2.38 0 1 1-3.8 0l1.5-2 .08-.08A.5.5 0 0 1 12 9Zm-1.1 2.8a1.38 1.38 0 1 0 2.2 0L12 10.35l-1.1 1.48ZM9 4.02c.16 0 .3.08.4.2l1.5 2a2.38 2.38 0 1 1-3.8 0l1.5-2 .08-.08A.5.5 0 0 1 9 4Zm-1.1 2.8a1.38 1.38 0 1 0 2.2 0L9 5.35 7.9 6.82Zm6.48-4.31c.16 0 .3.07.4.2l1.5 2a2.38 2.38 0 1 1-3.8 0l1.5-2 .08-.08a.5.5 0 0 1 .32-.12Zm-1.1 2.8a1.38 1.38 0 1 0 2.2 0l-1.1-1.47-1.1 1.48Z" clip-rule="evenodd"/></symbol>
  <use href="#icon"/>
</svg>
