<svg xmlns="http://www.w3.org/2000/svg">
  <symbol id="icon" fill="none" viewBox="0 0 16 16"><path fill="currentColor" d="M8.5 2c.83 0 1.5.67 1.5 1.5v1C10 5.33 9.33 6 8.5 6v1.5h3c.83 0 1.5.67 1.5 1.5v1c.83 0 1.5.67 1.5 1.5v1c0 .83-.67 1.5-1.5 1.5h-1a1.5 1.5 0 0 1-1.5-1.5v-1c0-.83.67-1.5 1.5-1.5V9a.5.5 0 0 0-.5-.5h-3V10c.83 0 1.5.67 1.5 1.5v1c0 .83-.67 1.5-1.5 1.5h-1A1.5 1.5 0 0 1 6 12.5v-1c0-.83.67-1.5 1.5-1.5V8.5h-3A.5.5 0 0 0 4 9v1c.83 0 1.5.67 1.5 1.5v1c0 .83-.67 1.5-1.5 1.5H3a1.5 1.5 0 0 1-1.5-1.5v-1c0-.83.67-1.5 1.5-1.5V9c0-.83.67-1.5 1.5-1.5h3V6A1.5 1.5 0 0 1 6 4.5v-1C6 2.67 6.67 2 7.5 2h1ZM3 11a.5.5 0 0 0-.5.5v1c0 .28.22.5.5.5h1a.5.5 0 0 0 .5-.5v-1A.5.5 0 0 0 4 11H3Zm4.5 0a.5.5 0 0 0-.5.5v1c0 .28.22.5.5.5h1a.5.5 0 0 0 .5-.5v-1a.5.5 0 0 0-.5-.5h-1Zm4.5 0a.5.5 0 0 0-.5.5v1c0 .28.22.5.5.5h1a.5.5 0 0 0 .5-.5v-1a.5.5 0 0 0-.5-.5h-1ZM7.5 3a.5.5 0 0 0-.5.5v1c0 .28.22.5.5.5h1a.5.5 0 0 0 .5-.5v-1a.5.5 0 0 0-.5-.5h-1Z"/></symbol>
  <symbol id="icon-large" fill="none" viewBox="0 0 24 24"><path fill="currentColor" d="M13 3c.83 0 1.5.67 1.5 1.5v2c0 .83-.67 1.5-1.5 1.5h-.5v3.5h5c.83 0 1.5.67 1.5 1.5v3h.6c.83 0 1.5.67 1.5 1.5v2c0 .83-.67 1.5-1.5 1.5h-2a1.5 1.5 0 0 1-1.5-1.5v-2c0-.83.67-1.5 1.5-1.5h.4v-3a.5.5 0 0 0-.5-.5h-5V16h.5c.83 0 1.5.67 1.5 1.5v2c0 .83-.67 1.5-1.5 1.5h-2a1.5 1.5 0 0 1-1.5-1.5v-2c0-.83.67-1.5 1.5-1.5h.5v-3.5h-5a.5.5 0 0 0-.5.5v3h.5c.83 0 1.5.67 1.5 1.5v2c0 .83-.67 1.5-1.5 1.5h-2A1.5 1.5 0 0 1 3 19.5v-2c0-.83.67-1.5 1.5-1.5H5v-3c0-.83.67-1.5 1.5-1.5h5V8H11a1.5 1.5 0 0 1-1.5-1.5v-2c0-.83.67-1.5 1.5-1.5h2ZM4.5 17a.5.5 0 0 0-.5.5v2c0 .28.22.5.5.5h2a.5.5 0 0 0 .5-.5v-2a.5.5 0 0 0-.5-.5h-2Zm6.5 0a.5.5 0 0 0-.5.5v2c0 .28.22.5.5.5h2a.5.5 0 0 0 .5-.5v-2a.5.5 0 0 0-.5-.5h-2Zm6.6 0a.5.5 0 0 0-.5.5v2c0 .28.22.5.5.5h2a.5.5 0 0 0 .5-.5v-2a.5.5 0 0 0-.5-.5h-2ZM11 4a.5.5 0 0 0-.5.5v2c0 .28.22.5.5.5h2a.5.5 0 0 0 .5-.5v-2A.5.5 0 0 0 13 4h-2Z"/></symbol>
  <use href="#icon"/>
</svg>
