<svg xmlns="http://www.w3.org/2000/svg">
  <symbol id="icon" fill="none" viewBox="0 0 16 16"><path fill="currentColor" d="M11 6c.28 0 .5.22.5.5v1.18a.5.5 0 0 1-1 0V7h-2v6h.73a.5.5 0 0 1 0 1H6.5a.5.5 0 0 1 0-1h1V7h-2v.68a.5.5 0 0 1-1 0V6.5c0-.28.22-.5.5-.5h6Zm1-5c.28 0 .5.22.5.5v2.53a.5.5 0 0 1-.05.2l-.02.03a.5.5 0 0 1-.04.05l-.02.03-.04.03-.04.03a.49.49 0 0 1-.04.03l-.03.02h-.01l-.05.02-.04.02H12v.01H9.5a.5.5 0 0 1 0-1h1.45A4.88 4.88 0 0 0 8 2.5a5 5 0 0 0-5 5 .5.5 0 0 1-1 0 6 6 0 0 1 8.77-5.32c.27.15.51.3.73.48V1.5c0-.28.22-.5.5-.5Z"/></symbol>
  <symbol id="icon-large" fill="none" viewBox="0 0 24 24"><path fill="currentColor" fill-rule="evenodd" d="M17.5 9c.28 0 .5.22.5.5v1.3a.5.5 0 1 1-1 0V10h-4.5v10h1.79a.5.5 0 1 1 0 1H9.7a.5.5 0 0 1 0-1h1.8V10H7v.8a.5.5 0 1 1-1 0V9.5a.5.5 0 0 1 .5-.5h11Zm2-7c.28 0 .5.22.5.5v4.08l-.02.07-.01.03-.03.06-.02.02a.49.49 0 0 1-.04.06l-.02.02a.5.5 0 0 1-.06.06.5.5 0 0 1-.17.08h-.02l-.07.02h-4.03a.5.5 0 0 1 0-1h2.89A9.63 9.63 0 0 0 12 3.5c-1.8 0-3.43.48-4.68 1.13a5.4 5.4 0 0 0-2.37 2.08.5.5 0 0 1-.9-.42c.41-.9 1.45-1.83 2.8-2.55A11.18 11.18 0 0 1 12 2.5c2.49 0 5.21 1.01 7 2.69V2.5c0-.28.23-.5.5-.5Z" clip-rule="evenodd"/></symbol>
  <use href="#icon"/>
</svg>
