<svg xmlns="http://www.w3.org/2000/svg">
  <symbol id="icon" fill="none" viewBox="0 0 16 16"><path fill="currentColor" d="M2.5 12.08c.28 0 .5.23.5.5V13h.42a.5.5 0 0 1 0 1H2.5a.5.5 0 0 1-.5-.5v-.92c0-.27.22-.5.5-.5Zm4.58.92a.5.5 0 0 1 0 1H5.25a.5.5 0 0 1 0-1h1.83Zm3.67 0a.5.5 0 0 1 0 1H8.92a.5.5 0 0 1 0-1h1.83Zm2.75-.92c.28 0 .5.23.5.5v.92a.5.5 0 0 1-.5.5h-.92a.5.5 0 0 1 0-1H13v-.42c0-.27.22-.5.5-.5ZM10 8a2 2 0 1 1 0 4 2 2 0 0 1 0-4Zm-7.5.42c.28 0 .5.22.5.5v1.83a.5.5 0 0 1-1 0V8.92c0-.28.22-.5.5-.5Zm11 0c.28 0 .5.22.5.5v1.83a.5.5 0 0 1-1 0V8.92c0-.28.22-.5.5-.5ZM10 9a1 1 0 1 0 0 2 1 1 0 0 0 0-2ZM6.25 4c.18 0 .34.1.43.25l1.75 3A.5.5 0 0 1 8 8H4.5a.5.5 0 0 1-.43-.75l1.75-3 .04-.06A.5.5 0 0 1 6.25 4Zm-3.75.75c.28 0 .5.22.5.5v1.83a.5.5 0 0 1-1 0V5.25c0-.28.22-.5.5-.5Zm11 0c.28 0 .5.22.5.5v1.83a.5.5 0 0 1-1 0V5.25c0-.28.22-.5.5-.5ZM5.37 7h1.76l-.88-1.5L5.37 7ZM3.42 2a.5.5 0 0 1 0 1H3v.42a.5.5 0 0 1-1 0V2.5c0-.28.22-.5.5-.5h.92ZM13.5 2c.28 0 .5.22.5.5v.92a.5.5 0 0 1-1 0V3h-.42a.5.5 0 0 1 0-1h.92ZM7.08 2a.5.5 0 0 1 0 1H5.25a.5.5 0 0 1 0-1h1.83Zm3.67 0a.5.5 0 0 1 0 1H8.92a.5.5 0 0 1 0-1h1.83Z"/></symbol>
  <symbol id="icon-large" fill="none" viewBox="0 0 24 24"><path fill="currentColor" d="M3.5 18.47c.28 0 .5.22.5.5v.53h.53a.5.5 0 0 1 0 1H3.5A.5.5 0 0 1 3 20v-1.03c0-.28.22-.5.5-.5Zm5.16 1.03a.5.5 0 0 1 0 1H6.59a.5.5 0 0 1 0-1h2.07Zm4.12 0a.5.5 0 1 1 0 1h-2.06a.5.5 0 1 1 0-1h2.06Zm4.13 0a.5.5 0 1 1 0 1h-2.07a.5.5 0 1 1 0-1h2.07ZM20 18.47c.28 0 .5.22.5.5V20a.5.5 0 0 1-.5.5h-1.03a.5.5 0 1 1 0-1h.53v-.53c0-.28.22-.5.5-.5ZM15 12a3 3 0 1 1 0 6 3 3 0 0 1 0-6ZM3.5 14.34c.28 0 .5.23.5.5v2.07a.5.5 0 1 1-1 0v-2.07c0-.27.22-.5.5-.5Zm16.5 0c.28 0 .5.23.5.5v2.07a.5.5 0 1 1-1 0v-2.07c0-.27.22-.5.5-.5ZM15 13a2 2 0 1 0 0 4 2 2 0 0 0 0-4ZM3.5 10.22c.28 0 .5.22.5.5v2.06a.5.5 0 1 1-1 0v-2.06c0-.28.22-.5.5-.5Zm16.5 0c.28 0 .5.22.5.5v2.06a.5.5 0 1 1-1 0v-2.06c0-.28.22-.5.5-.5ZM8.12 6.57a1 1 0 0 1 1.76 0l2.16 3.95a1 1 0 0 1-.88 1.48H6.84a1 1 0 0 1-.88-1.48l2.16-3.95ZM6.84 11h4.32L9 7.04 6.84 11ZM3.5 6.1c.28 0 .5.22.5.5v2.06a.5.5 0 0 1-1 0V6.59c0-.27.22-.5.5-.5Zm16.5 0c.28 0 .5.22.5.5v2.06a.5.5 0 0 1-1 0V6.59c0-.27.22-.5.5-.5ZM4.53 3a.5.5 0 0 1 0 1H4v.53a.5.5 0 0 1-1 0V3.5c0-.28.22-.5.5-.5h1.03ZM20 3c.28 0 .5.22.5.5v1.03a.5.5 0 0 1-1 0V4h-.53a.5.5 0 1 1 0-1H20ZM8.66 3a.5.5 0 0 1 0 1H6.59a.5.5 0 0 1 0-1h2.07Zm4.12 0a.5.5 0 1 1 0 1h-2.06a.5.5 0 1 1 0-1h2.06Zm4.13 0a.5.5 0 1 1 0 1h-2.07a.5.5 0 1 1 0-1h2.07Z"/></symbol>
  <use href="#icon"/>
</svg>
