<svg xmlns="http://www.w3.org/2000/svg">
  <symbol id="icon" fill="none" viewBox="0 0 16 16"><path fill="currentColor" fill-rule="evenodd" d="M7.5 3C8.33 3 9 3.67 9 4.5v7.97c0 .19-.04.36-.1.53h4.6a.5.5 0 0 1 0 1h-11a.5.5 0 1 1 0-1h.6a1.5 1.5 0 0 1-.1-.51l.01-8c0-.82.68-1.5 1.5-1.5h3ZM4 12.5c0 .27.23.5.5.5l1-.02V10.5H4v2Zm2.5.48 1-.01a.5.5 0 0 0 .5-.5V10.5H6.5v2.48Zm5.15-5.33a.5.5 0 0 1 .7.7l-.64.65h1.79a.5.5 0 0 1 0 1h-1.8l.65.65a.5.5 0 0 1-.7.7l-1.5-1.5a.5.5 0 0 1 0-.7l1.5-1.5ZM4 9.5h4v-2H4v2ZM4.51 4a.5.5 0 0 0-.5.5v2H5.5V4h-.99ZM6.5 6.5H8v-2a.5.5 0 0 0-.5-.5h-1v2.5Zm6.15-3.85a.5.5 0 0 1 .7.7L11.7 5.01h.92a.5.5 0 0 1 0 1L10.5 6a.5.5 0 0 1-.5-.5l.01-2.12a.5.5 0 0 1 1 0v.9l1.64-1.63Z" clip-rule="evenodd"/></symbol>
  <symbol id="icon-large" fill="none" viewBox="0 0 24 24"><path fill="currentColor" d="M14.47 4c.83 0 1.5.67 1.5 1.5l.03 13c0 .17-.03.34-.1.5h5.6a.5.5 0 0 1 0 1h-19a.5.5 0 0 1 0-1h.62a1.5 1.5 0 0 1-.1-.53V5.5c0-.83.67-1.5 1.5-1.5h9.95ZM10 18.98l4.5.02a.5.5 0 0 0 .5-.5l-.01-3.5H10v3.98Zm-5.98-.5c0 .27.22.49.5.5H9V15H4.02v3.47Zm14.63-5.83a.5.5 0 0 1 .7.7l-.64.65h2.79a.5.5 0 0 1 0 1h-2.8l.65.65a.5.5 0 0 1-.7.7l-1.5-1.5a.5.5 0 0 1 0-.7l1.5-1.5ZM4.02 14H6v-4H4.02v4ZM7 14h5v-4H7v4Zm6 0h1.99l-.01-4H13v4ZM4.52 5a.5.5 0 0 0-.5.5V9H9V5H4.52ZM10 9h4.98l-.01-3.5a.5.5 0 0 0-.5-.5H10v4Zm10.47-3.68a.5.5 0 1 1 .71.7L19.21 8h.91a.5.5 0 0 1 0 1H18a.5.5 0 0 1-.5-.5V6.38a.5.5 0 0 1 1 0v.91l1.97-1.97Z"/></symbol>
  <use href="#icon"/>
</svg>
