<svg xmlns="http://www.w3.org/2000/svg">
  <symbol id="icon" fill="none" viewBox="0 0 16 16"><path fill="currentColor" d="M6.67 8.83a1.5 1.5 0 0 1-1.5-1.5V2.67c0-.83.67-1.5 1.5-1.5h6.66c.83 0 1.5.67 1.5 1.5v4.66c0 .83-.67 1.5-1.5 1.5H6.67Zm6.66-1a.5.5 0 0 0 .5-.5V2.67a.5.5 0 0 0-.5-.5H6.67a.5.5 0 0 0-.5.5v4.66c0 .28.22.5.5.5h6.66Zm-10.66 7a1.5 1.5 0 0 1-1.5-1.5V6.67c0-.83.67-1.5 1.5-1.5H4v1H2.67a.5.5 0 0 0-.5.5v6.66c0 .28.22.5.5.5H12a.5.5 0 0 0 .5-.5V10h1v3.33c0 .83-.67 1.5-1.5 1.5H2.67Z"/></symbol>
  <symbol id="icon-large" fill="none" viewBox="0 0 24 24"><path fill="currentColor" d="M7.5 8a.5.5 0 0 1 0 1h-4a.5.5 0 0 0-.5.5v11c0 .28.22.5.5.5h15a.5.5 0 0 0 .5-.5v-5a.5.5 0 0 1 1 0v5c0 .83-.67 1.5-1.5 1.5h-15A1.5 1.5 0 0 1 2 20.5v-11C2 8.67 2.67 8 3.5 8h4Zm13-5c.83 0 1.5.67 1.5 1.5v8c0 .83-.67 1.5-1.5 1.5h-10A1.5 1.5 0 0 1 9 12.5v-8c0-.83.67-1.5 1.5-1.5h10Zm-10 1a.5.5 0 0 0-.5.5v8c0 .28.22.5.5.5h10a.5.5 0 0 0 .5-.5v-8a.5.5 0 0 0-.5-.5h-10Z"/></symbol>
  <use href="#icon"/>
</svg>
