<svg xmlns="http://www.w3.org/2000/svg">
  <symbol id="icon" fill="none" viewBox="0 0 16 16"><path fill="currentColor" d="M4 8.5h-.83c-.1 0-.17.07-.17.17v3.16l.01.07c.03.06.09.1.16.1H4.2l-.65-.65a.5.5 0 0 1 .7-.7l1.42 1.41c.2.2.2.51 0 .7l-1.41 1.42a.5.5 0 0 1-.7-.7l.47-.48h-.87c-.6 0-1.1-.46-1.16-1.05V8.67c0-.65.52-1.17 1.17-1.17H4v1Zm8.83 2c.65 0 1.17.52 1.17 1.17v1.16c0 .65-.52 1.17-1.17 1.17H7.67c-.65 0-1.17-.52-1.17-1.17v-1.16c0-.65.52-1.17 1.17-1.17h5.16Zm-5.16 1c-.1 0-.17.07-.17.17v1.16c0 .1.07.17.17.17h5.16c.1 0 .17-.07.17-.17v-1.16c0-.1-.07-.17-.17-.17H7.67Zm3.16-5.25c.65 0 1.17.52 1.17 1.17v1.16c0 .65-.52 1.17-1.17 1.17H5.67c-.65 0-1.17-.52-1.17-1.17V7.42c0-.65.52-1.17 1.17-1.17h5.16Zm-5.16 1c-.1 0-.17.07-.17.17v1.16c0 .1.07.17.17.17h5.16c.1 0 .17-.07.17-.17V7.42c0-.1-.07-.17-.17-.17H5.67Zm7.28-4.08c.6.06 1.05.56 1.05 1.16v3c0 .65-.52 1.17-1.17 1.17h-.33v-1h.33c.1 0 .17-.07.17-.17v-3a.17.17 0 0 0-.1-.15l-.07-.01H10v-1h2.95ZM8.33 2c.65 0 1.17.52 1.17 1.17v1.16c0 .65-.52 1.17-1.17 1.17H3.17C2.52 5.5 2 4.98 2 4.33V3.17C2 2.52 2.52 2 3.17 2h5.16ZM3.17 3c-.1 0-.17.07-.17.17v1.16c0 .1.07.17.17.17h5.16c.1 0 .17-.07.17-.17V3.17c0-.1-.07-.17-.17-.17H3.17Z"/></symbol>
  <symbol id="icon-large" fill="none" viewBox="0 0 24 24"><path fill="currentColor" d="M6 12.5H4.5a.5.5 0 0 0-.5.5v4.5c0 .28.22.5.5.5h2.91l-1.26-1.27a.5.5 0 0 1 .7-.7l2.12 2.12c.2.2.2.5 0 .7l-2.12 2.12a.5.5 0 1 1-.7-.7L7.4 19H4.5A1.5 1.5 0 0 1 3 17.5V13c0-.83.67-1.5 1.5-1.5H6v1ZM19.5 16c.83 0 1.5.67 1.5 1.5v2c0 .83-.67 1.5-1.5 1.5h-8a1.5 1.5 0 0 1-1.5-1.5v-2c0-.83.67-1.5 1.5-1.5h8Zm-8 1a.5.5 0 0 0-.5.5v2c0 .28.22.5.5.5h8a.5.5 0 0 0 .5-.5v-2a.5.5 0 0 0-.5-.5h-8ZM16 9.5c.83 0 1.5.67 1.5 1.5v2c0 .83-.67 1.5-1.5 1.5H8A1.5 1.5 0 0 1 6.5 13v-2c0-.83.67-1.5 1.5-1.5h8Zm-8 1a.5.5 0 0 0-.5.5v2c0 .28.22.5.5.5h8a.5.5 0 0 0 .5-.5v-2a.5.5 0 0 0-.5-.5H8ZM19.5 5c.83 0 1.5.67 1.5 1.5V11c0 .83-.67 1.5-1.5 1.5H18v-1h1.5a.5.5 0 0 0 .5-.5V6.5a.5.5 0 0 0-.5-.5h-5V5h5Zm-7-2c.83 0 1.5.67 1.5 1.5v2c0 .83-.67 1.5-1.5 1.5h-8A1.5 1.5 0 0 1 3 6.5v-2C3 3.67 3.67 3 4.5 3h8Zm-8 1a.5.5 0 0 0-.5.5v2c0 .28.22.5.5.5h8a.5.5 0 0 0 .5-.5v-2a.5.5 0 0 0-.5-.5h-8Z"/></symbol>
  <use href="#icon"/>
</svg>
